<svg width="313" height="165" viewBox="0 0 313 165" fill="none" xmlns="http://www.w3.org/2000/svg">
<path fill-rule="evenodd" clip-rule="evenodd" d="M182.642 0.273494C182.383 0.421562 182.118 0.598792 182.053 0.667513C181.864 0.868705 180.24 1.55999 179.957 1.55999C179.815 1.55999 179.697 1.63617 179.696 1.72953C179.694 1.93253 178.554 2.46422 178.121 2.46422C177.952 2.46422 177.814 2.56595 177.814 2.69028C177.814 2.8232 176.99 2.91634 175.812 2.91634C174.635 2.91634 173.81 2.8232 173.81 2.69028C173.81 2.56595 173.552 2.46422 173.236 2.46422C172.919 2.46422 172.595 2.3625 172.515 2.23817C172.435 2.11383 172.058 2.01211 171.677 2.01211C171.295 2.01211 170.984 1.89026 170.984 1.74084C170.984 1.52993 170.921 1.52993 170.702 1.74084C170.546 1.89004 170.228 2.01211 169.995 2.01211C169.762 2.01211 169.571 2.11383 169.571 2.23817C169.571 2.3625 169.253 2.46422 168.865 2.46422C168.476 2.46422 168.158 2.56595 168.158 2.69028C168.158 3.00269 165.915 2.97534 165.27 2.65502C164.105 2.07699 163.898 2.01211 163.215 2.01211C162.825 2.01211 162.506 2.11383 162.506 2.23817C162.506 2.3625 162.342 2.46422 162.142 2.46422C161.943 2.46422 161.552 2.66768 161.274 2.91634C160.858 3.28843 160.443 3.36846 158.928 3.36846C157.859 3.36846 157.089 3.27374 157.089 3.1424C157.089 3.01807 156.83 2.91634 156.514 2.91634C156.198 2.91634 155.874 2.81461 155.793 2.69028C155.713 2.56595 155.283 2.46422 154.837 2.46422C154.392 2.46422 154.027 2.3625 154.027 2.23817C154.027 2.11383 153.55 2.01211 152.967 2.01211C152.384 2.01211 151.907 1.91038 151.907 1.78605C151.907 1.66172 151.643 1.55999 151.319 1.55999C150.995 1.55999 150.73 1.66172 150.73 1.78605C150.73 1.91129 150.108 2.01211 149.336 2.01211C148.435 2.01211 147.905 2.11203 147.836 2.29468C147.751 2.52074 147.63 2.52074 147.231 2.29468C146.957 2.13915 146.148 2.01211 145.434 2.01211C144.72 2.01211 144.135 1.91038 144.135 1.78605C144.135 1.66172 143.569 1.55999 142.877 1.55999C141.917 1.55999 141.517 1.66737 141.191 2.01211C140.742 2.48909 139.789 2.61998 139.543 2.23817C139.463 2.11383 139.145 2.01211 138.836 2.01211C138.528 2.01211 138.21 1.91038 138.13 1.78605C137.94 1.49172 135.729 1.49172 135.539 1.78605C135.459 1.91038 135.125 2.01211 134.797 2.01211C134.398 2.01211 134.159 2.16221 134.077 2.46422C133.97 2.85643 133.755 2.91634 132.457 2.91634C131.397 2.91634 130.716 3.04836 130.122 3.36846C129.507 3.70031 128.847 3.82057 127.642 3.82057C126.705 3.82057 126.001 3.72359 126.001 3.59451C126.001 3.47018 125.471 3.36846 124.823 3.36846C124.176 3.36846 123.646 3.47018 123.646 3.59451C123.646 3.73783 121.879 3.82057 118.818 3.82057C115.756 3.82057 113.989 3.73783 113.989 3.59451C113.989 3.47018 113.672 3.36846 113.283 3.36846C112.894 3.36846 112.576 3.47018 112.576 3.59451C112.576 3.89811 106.295 3.89811 106.1 3.59451C105.91 3.29951 103.862 3.29951 103.862 3.59451C103.862 3.72857 102.999 3.82057 101.743 3.82057C100.487 3.82057 99.623 3.72857 99.623 3.59451C99.623 3.47018 99.4641 3.36846 99.2698 3.36846C99.0755 3.36846 98.9165 3.47018 98.9165 3.59451C98.9165 3.71885 98.7045 3.82057 98.4454 3.82057C98.1864 3.82057 97.9744 3.71885 97.9744 3.59451C97.9744 3.29906 95.2208 3.29906 95.0305 3.59451C94.8407 3.88929 91.6876 3.88929 91.4977 3.59451C91.4177 3.47018 91.0936 3.36846 90.7773 3.36846C90.461 3.36846 90.2024 3.26673 90.2024 3.1424C90.2024 3.01807 89.6725 2.91634 89.0248 2.91634C88.3772 2.91634 87.8473 3.01807 87.8473 3.1424C87.8473 3.26673 87.644 3.36846 87.3958 3.36846C87.1475 3.36846 86.9075 3.4747 86.8626 3.60446C86.8173 3.73422 86.3353 3.85742 85.7907 3.87822C85.221 3.89992 84.9226 3.99034 85.0877 4.09094C85.2575 4.19447 85.0684 4.26726 84.6228 4.2693C84.2095 4.27111 83.8058 4.17096 83.7257 4.04663C83.6457 3.9223 83.3729 3.82057 83.1198 3.82057C82.8666 3.82057 82.4556 3.69827 82.2062 3.54885C81.8492 3.33477 81.6125 3.34133 81.0908 3.57914C80.7264 3.74507 80.2123 3.97497 79.9481 4.08981C79.0479 4.48066 70.6546 4.01363 70.6546 3.57259C70.6546 3.26017 69.7653 3.3298 69.6527 3.65103C69.5779 3.86443 68.6393 3.91981 65.8176 3.87709C63.763 3.84612 61.9891 3.73151 61.8756 3.62255C61.7576 3.50929 61.1985 3.65397 60.5684 3.9605C59.4714 4.49468 58.1601 4.52045 57.5953 4.01928C57.4721 3.90987 57.1808 3.82057 56.9476 3.82057C56.7145 3.82057 56.5237 3.71885 56.5237 3.59451C56.5237 3.2916 55.6433 3.3038 55.5376 3.60808C55.4236 3.93631 53.8621 3.95553 53.7491 3.63023C53.6377 3.30923 52.8379 3.28368 52.6377 3.59451C52.4425 3.89788 44.8254 3.89788 44.6302 3.59451C44.5475 3.46611 43.3716 3.36846 41.9078 3.36846C40.3471 3.36846 39.3311 3.27939 39.3311 3.1424C39.3311 3.01807 39.1721 2.91634 38.9778 2.91634C38.7835 2.91634 38.6245 3.01807 38.6245 3.1424C38.6245 3.26673 38.1212 3.36122 37.5058 3.35263C36.6641 3.34065 36.5037 3.28866 36.8582 3.1424C37.2421 2.98393 37.2557 2.94528 36.9309 2.93216C36.7119 2.92357 36.4672 3.01807 36.3871 3.1424C36.1768 3.46883 34.447 3.42203 34.3056 3.08588C34.2107 2.85983 34.1832 2.85983 34.1683 3.08588C34.1453 3.43763 29.3108 3.49143 29.0862 3.1424C28.9967 3.00337 27.0426 2.91634 24.0087 2.91634C20.8777 2.91634 19.0767 2.99885 19.0767 3.1424C19.0767 3.26673 18.7652 3.36846 18.3841 3.36846C18.003 3.36846 17.6389 3.45006 17.5746 3.54975C17.5106 3.64945 16.9147 3.87302 16.2506 4.04663C15.5864 4.22024 14.9906 4.44381 14.9265 4.54351C14.8622 4.6432 14.5572 4.7248 14.2487 4.7248C13.9402 4.7248 13.6222 4.82653 13.5421 4.95086C13.4621 5.07519 13.247 5.17692 13.0643 5.17692C12.8813 5.17692 12.1526 5.43124 11.4446 5.74207C10.7367 6.0529 9.99151 6.30721 9.78896 6.30721C9.58642 6.30721 9.42062 6.40894 9.42062 6.53327C9.42062 6.6576 9.20865 6.75933 8.94959 6.75933C8.69052 6.75933 8.47856 6.86105 8.47856 6.98539C8.47856 7.10972 8.27931 7.21144 8.03602 7.21144C7.36174 7.21144 5.79651 8.80515 5.06923 10.232C4.71196 10.933 4.32595 11.5065 4.21172 11.5065C4.09726 11.5065 4.00376 11.71 4.00376 11.9587C4.00376 12.2073 3.89778 12.4108 3.76825 12.4108C3.63871 12.4108 3.53273 12.5683 3.53273 12.7612C3.53273 12.9538 3.37282 13.4084 3.17734 13.7712C2.62364 14.7989 1.38624 19.6593 1.5511 20.1582C1.63848 20.4221 1.56806 20.6936 1.37941 20.8204C1.13095 20.9877 1.12529 21.0609 1.35421 21.15C1.51625 21.213 1.64861 21.6159 1.64861 22.0452C1.64861 22.4742 1.82336 23.0814 2.03697 23.3943C2.32925 23.8224 2.35845 24.027 2.15473 24.2225C2.00589 24.3654 1.88412 24.7102 1.88412 24.9889C1.88412 25.2676 1.77814 25.5583 1.64861 25.6352C1.32642 25.8264 1.34997 27.8578 1.67828 28.1729C1.8528 28.3404 1.89166 28.9146 1.79157 29.857C1.41663 33.3928 1.35775 35.2427 1.61987 35.2427C1.93523 35.2427 1.97786 36.5167 1.66863 36.7001C1.55016 36.7704 1.40956 36.7019 1.3561 36.5477C1.30264 36.3937 1.28615 36.9951 1.31983 37.8839C1.35327 38.7728 1.53344 39.7885 1.7202 40.1407C2.07112 40.803 2.01695 43.2614 1.64131 43.7198C1.53933 43.8442 1.45478 45.7636 1.4536 47.9853C1.45195 50.575 1.35987 52.1125 1.19665 52.2691C0.868817 52.5838 0.864812 54.7451 1.19171 55.0589C1.46679 55.3229 1.35516 63.6371 1.05605 65.1594C0.89755 65.9669 1.19571 66.9884 1.69571 67.3495C1.78685 67.4152 1.70207 68.1273 1.5073 68.9319C1.31253 69.7364 1.15497 70.5473 1.15709 70.7338C1.16886 71.7549 1.61422 73.4874 1.95878 73.8527C2.40061 74.3213 2.5219 76.4858 2.11964 76.7243C1.80475 76.911 1.81677 80.2992 2.1333 80.603C2.5657 81.0181 2.65167 84.2066 2.25035 84.9512C1.63401 86.0956 1.54098 87.3264 2.03509 87.8007C2.34244 88.0957 2.38342 88.2442 2.1764 88.3105C1.72586 88.4547 1.79439 91.5151 2.26872 92.4274C2.56735 93.0021 2.6194 93.5159 2.50188 94.7294C2.41874 95.5886 2.24564 96.492 2.11728 96.737C1.98916 96.9821 1.76166 97.4113 1.61187 97.6912C1.46208 97.9711 1.26331 98.3524 1.17028 98.5389C1.07725 98.7254 0.775788 99.32 0.50047 99.8602C0.130476 100.586 0 101.269 0 102.479C0 103.379 0.0777197 104.189 0.172397 104.281C0.26731 104.372 0.371643 105.053 0.403909 105.795C0.43641 106.537 0.570654 107.338 0.702543 107.574C0.834196 107.81 0.942062 108.971 0.942062 110.153C0.942062 111.335 1.03533 112.357 1.14955 112.425C1.4357 112.595 1.63165 113.685 1.37588 113.685C1.26189 113.685 1.23504 113.939 1.3163 114.25C1.41168 114.614 1.36505 114.815 1.18582 114.815C0.916627 114.815 0.976682 119.474 1.28615 122.614C1.34738 123.236 1.43829 124.511 1.48822 125.448C1.54145 126.447 1.75318 127.505 2.00023 128.004C2.41521 128.844 2.41403 128.862 1.91733 129.196C1.22798 129.659 1.20984 130.865 1.89237 130.865C2.50447 130.865 3.53273 131.506 3.53273 131.887C3.53273 132.262 5.83395 134.256 6.26659 134.256C6.447 134.256 6.59443 134.358 6.59443 134.482C6.59443 134.606 6.7852 134.708 7.01836 134.708C7.25152 134.708 7.54309 134.801 7.66603 134.913C7.7892 135.026 8.41968 135.169 9.06734 135.231C10.8175 135.398 11.5377 135.589 12.7941 136.219C13.6936 136.67 14.1347 136.761 14.9138 136.653C15.503 136.571 16.3372 136.645 16.9946 136.838C17.5979 137.016 18.1469 137.108 18.2143 137.043C18.2816 136.978 19.4837 137.052 20.8853 137.206C23.9298 137.542 25.8417 137.503 27.0918 137.079C27.5991 136.908 28.0683 136.851 28.1344 136.954C28.3273 137.253 29.3923 137.445 31.9123 137.633C34.3551 137.816 37.7331 138.413 38.4446 138.788C38.9279 139.042 41.141 139.079 41.2545 138.834C41.2976 138.74 41.8419 138.417 42.4641 138.114C43.5711 137.575 43.6104 137.572 44.3068 137.967C44.9187 138.314 45.1721 138.335 46.1196 138.114C47.906 137.699 49.784 137.171 50.1857 136.971C50.3918 136.868 50.7098 136.875 50.8923 136.986C51.4672 137.335 53.665 137.226 54.3179 136.815C54.8428 136.485 55.097 136.47 56.2668 136.702C57.0065 136.849 58.1683 136.969 58.8482 136.969C59.5282 136.969 61.2583 137.223 62.6928 137.534C64.7627 137.982 65.9455 138.099 68.4236 138.099C71.1233 138.099 71.5668 138.15 71.6973 138.477C71.7802 138.684 71.7514 138.913 71.6332 138.985C71.5152 139.057 71.3649 139.523 71.2997 140.021C71.0746 141.733 70.6452 143.864 70.4344 144.316C70.3181 144.564 70.0852 145.092 69.9168 145.489C69.6982 146.003 69.3228 146.323 68.6066 146.607C67.9116 146.882 67.4891 147.234 67.2335 147.751C67.0305 148.162 66.7837 148.498 66.6852 148.498C66.5866 148.498 66.3084 148.928 66.0668 149.453C65.8251 149.979 65.434 150.608 65.1973 150.852C64.9603 151.096 64.7667 151.429 64.7667 151.592C64.7667 151.755 64.6608 151.889 64.5312 151.889C64.4017 151.889 64.2957 152.092 64.2957 152.341C64.2957 152.589 64.2109 152.793 64.1075 152.793C64.0039 152.793 63.7832 153.154 63.617 153.595C63.3527 154.297 62.5753 155.175 61.3746 156.127C61.1787 156.283 60.8548 156.41 60.6551 156.41C60.4554 156.41 60.292 156.512 60.292 156.636C60.292 156.76 60.0762 156.862 59.8129 156.862C59.5336 156.862 58.6448 157.523 57.6817 158.447C56.1935 159.876 56.0162 160.142 55.8944 161.129C55.6994 162.709 56.1452 163.854 57.0214 164.022C57.4008 164.095 57.7682 164.243 57.8379 164.351C57.9076 164.459 58.323 164.548 58.7611 164.548C59.1992 164.548 59.6231 164.65 59.7032 164.774C59.7832 164.898 60.6841 165 61.705 165C62.726 165 63.6269 164.898 63.7069 164.774C63.787 164.65 64.4759 164.548 65.2378 164.548C65.9997 164.548 66.6886 164.446 66.7686 164.322C66.8487 164.197 67.2274 164.096 67.6101 164.096C67.9928 164.096 68.5164 163.994 68.7738 163.87C69.031 163.745 69.4521 163.542 69.7093 163.418C69.9667 163.293 70.4372 163.192 70.7552 163.192C71.0731 163.192 71.3989 163.09 71.4789 162.965C71.559 162.841 71.9163 162.739 72.2726 162.739C72.6292 162.739 73.1264 162.561 73.3774 162.344C74.3298 161.518 75.5439 161.164 77.9556 161.006C78.7976 160.951 79.8204 160.759 80.2286 160.579C80.6367 160.4 81.5048 160.253 82.1577 160.253C82.8105 160.253 83.4101 160.151 83.4902 160.027C83.5703 159.902 83.8414 159.801 84.0929 159.801C84.3444 159.801 84.55 159.699 84.55 159.575C84.55 159.45 84.762 159.349 85.0211 159.349C85.2801 159.349 85.4921 159.247 85.4921 159.122C85.4921 158.998 85.6365 158.896 85.8129 158.896C85.9893 158.896 86.9577 158.49 87.965 157.992C88.9723 157.495 89.9737 157.088 90.1906 157.088C90.4073 157.088 90.8122 156.885 91.0903 156.636C91.3682 156.387 91.7062 156.184 91.8411 156.184C91.9761 156.184 92.0865 156.082 92.0865 155.958C92.0865 155.833 92.291 155.732 92.5408 155.732C92.7905 155.732 93.1539 155.579 93.3482 155.393C93.5425 155.206 93.802 155.053 93.925 155.053C94.0479 155.053 94.2888 154.891 94.4605 154.693C94.632 154.494 95.5724 153.759 96.55 153.06C97.5276 152.361 98.3807 151.73 98.4454 151.658C98.5102 151.586 98.9341 151.287 99.3875 150.993C99.8409 150.699 100.436 150.22 100.71 149.93C100.984 149.64 101.322 149.402 101.46 149.402C101.784 149.402 107.631 143.881 107.631 143.575C107.631 143.448 108.144 142.841 108.771 142.226C109.584 141.429 109.991 140.805 110.188 140.052C110.554 138.657 111.908 137.195 112.832 137.195C113.202 137.195 114.084 136.941 114.792 136.63C116.296 135.969 116.483 135.954 117.598 136.401C118.06 136.587 118.578 136.686 118.75 136.623C119.067 136.507 121.88 135.999 124.47 135.592C126.899 135.209 129.769 135.085 129.769 135.363C129.769 135.529 130.597 135.612 132.242 135.612C133.602 135.612 134.715 135.692 134.715 135.789C134.715 136.085 138.862 136.528 142.958 136.67C145.095 136.744 146.96 136.892 147.102 136.998C147.587 137.363 154.236 137.277 156.567 136.876C157.77 136.669 158.841 136.551 158.946 136.614C159.051 136.676 160.396 136.845 161.935 136.99C163.486 137.135 164.957 137.393 165.237 137.569C165.876 137.971 166.36 137.968 170.395 137.538C176.865 136.85 179.391 136.666 182.76 136.641C186.077 136.616 189.284 136.261 190.117 135.826C190.607 135.57 194.065 135.537 194.065 135.789C194.065 135.886 194.405 136.089 194.821 136.24C195.715 136.563 201.807 136.194 202.756 135.759C203.529 135.404 207.501 135.491 207.744 135.868C207.968 136.216 213.106 136.189 213.472 135.838C213.601 135.714 213.929 135.612 214.201 135.612C214.473 135.612 214.81 135.503 214.949 135.37C215.112 135.213 215.986 135.17 217.41 135.247C219.695 135.372 220.307 135.393 221.208 135.377C221.969 135.364 223.543 135.609 224.093 135.827C225.737 136.476 232.268 136.492 232.683 135.848C232.903 135.506 237.14 135.499 237.495 135.84C237.624 135.963 237.92 136.065 238.153 136.065C238.386 136.065 238.577 136.141 238.578 136.234C238.579 136.511 243.795 136.728 246.938 136.582C248.775 136.496 253.078 136.92 254.239 137.3C255.208 137.617 255.959 137.663 258.478 137.559C260.162 137.489 261.964 137.315 262.482 137.171C263 137.028 264.378 136.833 265.544 136.738C266.709 136.643 267.936 136.495 268.27 136.409C268.603 136.323 269.504 136.378 270.272 136.531C272.449 136.964 273.697 137.022 274.846 136.743C276.127 136.432 279.044 135.889 280.499 135.691C281.082 135.612 281.637 135.435 281.732 135.297C281.852 135.123 281.906 135.133 281.908 135.33C281.91 135.485 282.161 135.612 282.464 135.612C282.769 135.612 283.367 135.78 283.796 135.985C284.46 136.303 285.11 136.338 288.228 136.221C290.487 136.136 291.942 135.989 292.042 135.835C292.131 135.696 293.185 135.535 294.417 135.472C300.899 135.139 301.3 135.135 301.974 135.403C302.492 135.609 302.731 135.613 302.933 135.419C303.081 135.277 303.498 135.16 303.859 135.16C304.366 135.16 304.647 134.96 305.094 134.28C305.413 133.797 305.997 133.179 306.393 132.909C307.019 132.48 307.112 132.281 307.112 131.358C307.113 130.327 307.179 130.201 308.511 128.68C308.639 128.535 308.956 127.809 309.216 127.067C309.601 125.972 309.695 125.079 309.715 122.321C309.732 120.115 309.645 118.751 309.466 118.43C309.295 118.122 309.243 117.455 309.33 116.658C310.169 108.954 310.236 103.481 309.499 102.774C309.16 102.449 309.131 97.2689 309.467 97.0695C309.597 96.9927 309.703 96.6511 309.703 96.3102C309.703 95.9693 309.816 95.5819 309.954 95.4492C310.274 95.1426 310.299 91.8358 309.984 91.4681C309.597 91.015 309.568 90.0477 309.922 89.4132C310.104 89.0861 310.341 88.8184 310.449 88.8184C310.729 88.8184 310.692 86.8386 310.409 86.6709C310.086 86.4792 310.107 81.1566 310.435 80.2549C310.632 79.7114 310.624 79.3696 310.401 78.8536C310.163 78.3006 310.166 78.0648 310.419 77.6116C310.681 77.1416 310.665 76.5319 310.321 73.7955C309.932 70.708 309.97 69.0729 310.436 68.7965C310.721 68.6276 310.701 67.6289 310.409 67.4559C310.28 67.3791 310.174 66.8693 310.174 66.3229C310.174 65.7766 310.05 65.0697 309.9 64.7521C309.691 64.3124 309.691 64.0395 309.9 63.6109C310.05 63.3012 310.306 62.7774 310.468 62.4467C310.836 61.6962 310.799 59.543 310.411 59.0943C310.225 58.8784 310.177 58.4559 310.278 57.9081C310.481 56.8077 310.482 56.101 310.281 55.1891C310.11 54.4063 310.418 53.42 311.157 52.3883C311.394 52.0582 311.587 51.6818 311.587 51.5518C311.587 51.4219 311.905 50.8633 312.293 50.3106C312.682 49.7578 312.998 49.0152 312.996 48.6603C312.993 48.0161 312.582 46.6936 312.212 46.14C312.097 45.9675 312.146 45.6976 312.332 45.4817C312.579 45.1942 312.584 45.0952 312.352 45.0206C312.191 44.9683 312.058 44.5779 312.058 44.1532C312.058 43.7282 311.952 43.3807 311.822 43.3807C311.48 43.3807 311.53 40.0819 311.881 39.4799C312.043 39.2025 312.361 38.7325 312.588 38.435C312.815 38.1378 313 37.5846 313 37.2062C313 36.4075 312.521 35.0166 312.246 35.0166C312.143 35.0166 312.058 34.3554 312.058 33.5472C312.058 32.7391 311.958 32.0778 311.836 32.0778C311.714 32.0778 311.565 30.8824 311.504 29.4217C311.443 27.9606 311.319 26.3228 311.228 25.7819C311.122 25.1541 311.164 24.6148 311.344 24.2915C311.542 23.9368 311.588 22.9426 311.499 20.98C311.428 19.4373 311.309 16.8239 311.235 15.1721C311.126 12.7729 311.005 12.0095 310.635 11.377C310.174 10.5883 310.174 10.5836 310.644 10.0991C311.378 9.34317 311.239 8.84381 310.174 8.40074C309.656 8.1853 309.232 7.89753 309.232 7.76144C309.232 7.43411 306.92 5.36161 306.17 5.01687C305.179 4.56091 303.757 4.27518 302.475 4.27404C301.802 4.27337 301.187 4.17096 301.106 4.04663C301.026 3.9223 300.708 3.82057 300.4 3.82057C300.091 3.82057 299.773 3.71885 299.693 3.59451C299.613 3.47018 298.818 3.36846 297.927 3.36846C297.036 3.36846 296.241 3.26673 296.161 3.1424C296.081 3.01807 295.358 2.91634 294.555 2.91634C293.35 2.91634 293.043 2.83745 292.8 2.46422C292.538 2.06139 292.251 2.01211 290.167 2.01211C288.862 2.01211 287.763 2.11203 287.682 2.23817C287.491 2.53543 284.032 2.53543 284.032 2.23817C284.032 1.93954 279.867 1.93954 279.675 2.23817C279.485 2.53317 277.437 2.53317 277.437 2.23817C277.437 2.10411 276.574 2.01211 275.318 2.01211C274.062 2.01211 273.198 2.10411 273.198 2.23817C273.198 2.3625 272.774 2.46422 272.256 2.46422C271.738 2.46422 271.314 2.56595 271.314 2.69028C271.314 2.81461 270.996 2.91634 270.607 2.91634C270.219 2.91634 269.901 3.01807 269.901 3.1424C269.901 3.43966 266.442 3.43966 266.25 3.1424C266.16 3.00156 263.931 2.91634 260.345 2.91634C256.161 2.91634 254.449 2.83903 254.087 2.63377C253.688 2.40771 253.567 2.40771 253.482 2.63377C253.409 2.8275 252.789 2.91634 251.511 2.91634C250.425 2.91634 249.646 3.01083 249.646 3.1424C249.646 3.27306 248.9 3.36846 247.88 3.36846C246.859 3.36846 246.114 3.27306 246.114 3.1424C246.114 3.01807 245.796 2.91634 245.407 2.91634C245.018 2.91634 244.701 2.81461 244.701 2.69028C244.701 2.56595 244.351 2.46422 243.923 2.46422C243.496 2.46422 243.034 2.35707 242.898 2.22596C242.573 1.914 232.211 1.92824 231.885 2.24133C231.581 2.53362 228.285 2.53091 228.097 2.23817C228.017 2.11383 226.974 2.01211 225.78 2.01211C223.878 2.01211 223.566 2.0684 223.269 2.46422C222.983 2.84513 222.659 2.91634 221.215 2.91634C220.229 2.91634 219.5 3.01241 219.5 3.1424C219.5 3.26673 219.045 3.36846 218.488 3.36846C217.931 3.36846 217.374 3.46024 217.251 3.57259C217.128 3.68494 216.524 3.83753 215.909 3.91167C215.294 3.98582 214.303 4.10857 213.708 4.18407C212.852 4.29281 212.408 4.21437 211.588 3.8095C211.018 3.52783 210.551 3.21157 210.551 3.10691C210.551 3.00202 210.345 2.91634 210.094 2.91634C209.842 2.91634 209.571 2.81461 209.491 2.69028C209.287 2.37403 208.052 2.40816 207.455 2.7468C207.056 2.97285 206.935 2.97285 206.85 2.7468C206.791 2.59149 206.54 2.46422 206.292 2.46422C206.044 2.46422 205.84 2.3625 205.84 2.23817C205.84 2.10343 204.942 2.01211 203.617 2.01211C202.389 2.01211 201.328 1.91083 201.248 1.78605C201.168 1.66172 200.738 1.55999 200.292 1.55999C199.846 1.55999 199.482 1.66172 199.482 1.78605C199.482 1.91038 199.217 2.01211 198.893 2.01211C198.569 2.01211 198.304 1.89004 198.304 1.74084C198.304 1.52993 198.241 1.52993 198.021 1.74084C197.866 1.89004 197.495 2.01211 197.197 2.01211C196.899 2.01211 196.655 2.11383 196.655 2.23817C196.655 2.3625 196.284 2.46422 195.831 2.46422C195.378 2.46422 195.007 2.3625 195.007 2.23817C195.007 2.11383 194.689 2.01211 194.3 2.01211C193.912 2.01211 193.594 1.91038 193.594 1.78605C193.594 1.65403 192.785 1.55773 191.651 1.55457C190.582 1.55163 189.284 1.4395 188.766 1.30545C188.247 1.1714 187.4 1.01542 186.882 0.958902C186.001 0.862828 185.337 0.657567 184.353 0.177193C183.809 -0.0881988 183.217 -0.0549685 182.642 0.273494ZM32.2656 2.91634C32.2656 3.04067 32.378 3.1424 32.515 3.1424C32.6521 3.1424 32.699 3.04067 32.6189 2.91634C32.5388 2.79201 32.4267 2.69028 32.3695 2.69028C32.3122 2.69028 32.2656 2.79201 32.2656 2.91634ZM210.845 136.446C211.072 136.503 211.443 136.503 211.669 136.446C211.896 136.39 211.711 136.343 211.257 136.343C210.804 136.343 210.619 136.39 210.845 136.446ZM81.6798 160.633C81.8496 160.699 82.0529 160.69 82.1311 160.615C82.2093 160.54 82.0703 160.487 81.8221 160.497C81.5477 160.508 81.4919 160.561 81.6798 160.633Z" fill="#E4E0DC"/>
</svg>
