<svg width="93" height="29" viewBox="0 0 93 29" fill="none" xmlns="http://www.w3.org/2000/svg">
<path d="M11.5451 10.3188V13.4079H19C18.802 15.1168 18.2083 16.4313 17.2847 17.2857C16.2291 18.3373 14.5139 19.5204 11.5451 19.5204C6.99304 19.5204 3.43055 15.8398 3.43055 11.3047C3.43055 6.76969 6.92707 3.08908 11.5451 3.08908C13.9861 3.08908 15.8333 4.07496 17.1527 5.32374L19.3298 3.15481C17.4826 1.38023 14.9757 0 11.5451 0C5.27776 0 0 5.06084 0 11.3047C0 17.5486 5.27776 22.6095 11.5451 22.6095C14.9097 22.6095 17.4826 21.4921 19.4618 19.4546C21.5069 17.4172 22.1666 14.5253 22.1666 12.2249C22.1666 11.5019 22.1006 10.8447 22.0347 10.3188H11.5451Z" fill="#121313"/>
<path d="M31.4027 7.75556C27.3784 7.75556 24.0138 10.8446 24.0138 15.0511C24.0138 19.2575 27.3124 22.3465 31.4027 22.3465C35.4929 22.3465 38.7915 19.3232 38.7915 15.1168C38.7915 10.8446 35.4929 7.75556 31.4027 7.75556ZM31.4027 19.5204C29.1596 19.5204 27.2464 17.6801 27.2464 15.1168C27.2464 12.4878 29.1596 10.7132 31.4027 10.7132C33.6457 10.7132 35.5589 12.4878 35.5589 15.1168C35.5589 17.6801 33.6457 19.5204 31.4027 19.5204Z" fill="#121313"/>
<path d="M67.3589 9.39868C66.6332 8.54426 65.2478 7.75555 63.4666 7.75555C59.7721 7.75555 56.6055 10.9104 56.6055 15.051C56.6055 19.126 59.7721 22.3465 63.4666 22.3465C65.2478 22.3465 66.6332 21.5578 67.3589 20.7034H67.4909V21.755C67.4909 24.5155 65.9735 26.0271 63.5985 26.0271C61.6193 26.0271 60.4318 24.6469 59.9041 23.3981L57.1332 24.5812C57.9249 26.4872 60.102 28.9191 63.6645 28.9191C67.4249 28.9191 70.6575 26.6844 70.6575 21.2949V8.1499H67.6228V9.39868H67.3589ZM63.7964 19.5204C61.5534 19.5204 59.9041 17.6143 59.9041 15.1168C59.9041 12.5535 61.6193 10.7132 63.7964 10.7132C65.9735 10.7132 67.6888 12.6192 67.6888 15.1825C67.7547 17.6801 66.0395 19.5204 63.7964 19.5204Z" fill="#121313"/>
<path d="M47.8303 7.75555C43.806 7.75555 40.4414 10.8446 40.4414 15.051C40.4414 19.2575 43.74 22.3465 47.8303 22.3465C51.9205 22.3465 55.2191 19.3232 55.2191 15.1168C55.2191 10.8446 51.9205 7.75555 47.8303 7.75555ZM47.8303 19.5204C45.5872 19.5204 43.674 17.6801 43.674 15.1168C43.674 12.4878 45.5872 10.7132 47.8303 10.7132C50.0733 10.7132 51.9865 12.4878 51.9865 15.1168C51.9865 17.6801 50.0733 19.5204 47.8303 19.5204Z" fill="#121313"/>
<path d="M73.0977 0.328613H76.2643V22.4123H73.0977V0.328613Z" fill="#121313"/>
<path d="M86.0284 19.5204C84.3791 19.5204 83.2576 18.7974 82.4659 17.2857L92.2958 13.2765L91.9659 12.422C91.3721 10.7789 89.459 7.75555 85.6985 7.75555C81.9381 7.75555 78.7715 10.7132 78.7715 15.051C78.7715 19.126 81.8722 22.3465 86.0284 22.3465C89.393 22.3465 91.3062 20.3091 92.1638 19.126L89.6569 17.4829C88.7992 18.7317 87.6777 19.5204 86.0284 19.5204ZM85.8305 10.516C87.1499 10.516 88.2715 11.1733 88.6013 12.0934L82.0041 14.8539C81.9381 11.8305 84.1812 10.516 85.8305 10.516Z" fill="#121313"/>
</svg>
