<svg width="96" height="18" viewBox="0 0 96 18" fill="none" xmlns="http://www.w3.org/2000/svg">
<path fill-rule="evenodd" clip-rule="evenodd" d="M86.3878 15.9399C86.0538 15.9399 85.8967 16.1387 85.8967 16.5163C85.8967 16.8741 86.0735 17.0728 86.3878 17.0728H91.7907C92.1247 17.0728 92.3015 16.8741 92.3015 16.5163C92.3015 16.1586 92.1247 15.9399 91.7907 15.9399H86.3878Z" fill="#121313"/>
<path fill-rule="evenodd" clip-rule="evenodd" d="M78.8428 15.9399C78.5284 15.9399 78.3516 16.1387 78.3516 16.5163C78.3516 16.8741 78.5284 17.0728 78.8428 17.0728H83.9902C84.3242 17.0728 84.4814 16.8741 84.4814 16.5163C84.4814 16.1586 84.3242 15.9399 83.9902 15.9399H78.8428Z" fill="#121313"/>
<path fill-rule="evenodd" clip-rule="evenodd" d="M71.042 15.9399C70.708 15.9399 70.5705 16.1387 70.5705 16.5163C70.5705 16.8741 70.708 17.0728 71.042 17.0728H76.2091C76.5431 17.0728 76.7003 16.8741 76.7003 16.5163C76.7003 16.1586 76.5431 15.9399 76.2091 15.9399H71.042Z" fill="#121313"/>
<path fill-rule="evenodd" clip-rule="evenodd" d="M62.9681 15.9399C62.6341 15.9399 62.477 16.1387 62.477 16.5163C62.477 16.8741 62.6341 17.0728 62.9681 17.0728H68.1156C68.4496 17.0728 68.6068 16.8741 68.6068 16.5163C68.6068 16.1586 68.4496 15.9399 68.1156 15.9399H62.9681Z" fill="#121313"/>
<path fill-rule="evenodd" clip-rule="evenodd" d="M55.1671 15.94C54.8331 15.94 54.676 16.1387 54.676 16.5164C54.676 16.8741 54.8331 17.0729 55.1671 17.0729H60.3146C60.6486 17.0729 60.8058 16.8741 60.8058 16.5164C60.8058 16.1586 60.6486 15.94 60.3146 15.94H55.1671Z" fill="#121313"/>
<path fill-rule="evenodd" clip-rule="evenodd" d="M47.3685 15.9399C47.0345 15.9399 46.8576 16.1387 46.8576 16.5163C46.8576 16.8741 47.0345 17.0728 47.3685 17.0728H52.7517C53.0857 17.0728 53.2625 16.8741 53.2625 16.5163C53.2625 16.1586 53.0857 15.9399 52.7517 15.9399H47.3685Z" fill="#121313"/>
<path fill-rule="evenodd" clip-rule="evenodd" d="M39.5285 15.9399C39.1945 15.9399 39.0373 16.1387 39.0373 16.5163C39.0373 16.8741 39.1945 17.0728 39.5285 17.0728H44.6759C45.0099 17.0728 45.1671 16.8741 45.1671 16.5163C45.1671 16.1586 45.0296 15.9399 44.6759 15.9399H39.5285Z" fill="#121313"/>
<path fill-rule="evenodd" clip-rule="evenodd" d="M31.7297 15.9399C31.3957 15.9399 31.2385 16.1387 31.2385 16.5163C31.2385 16.8741 31.3957 17.0728 31.7297 17.0728H36.8968C37.2111 17.0728 37.3683 16.8741 37.3683 16.5163C37.3683 16.1586 37.2111 15.9399 36.8968 15.9399H31.7297Z" fill="#121313"/>
<path fill-rule="evenodd" clip-rule="evenodd" d="M23.9289 15.9399C23.5949 15.9399 23.4377 16.1387 23.4377 16.5163C23.4377 16.8741 23.5949 17.0728 23.9289 17.0728H29.0763C29.4103 17.0728 29.5675 16.8741 29.5675 16.5163C29.5675 16.1586 29.4103 15.9399 29.0763 15.9399H23.9289Z" fill="#121313"/>
<path fill-rule="evenodd" clip-rule="evenodd" d="M16.1301 15.9399C15.7961 15.9399 15.6389 16.1387 15.6389 16.5163C15.6389 16.8741 15.7961 17.0728 16.1301 17.0728H21.2775C21.6115 17.0728 21.7687 16.8741 21.7687 16.5163C21.7687 16.1586 21.6115 15.9399 21.2775 15.9399H16.1301Z" fill="#121313"/>
<path fill-rule="evenodd" clip-rule="evenodd" d="M8.31166 15.9399C7.97767 15.9399 7.82049 16.1387 7.82049 16.5163C7.82049 16.8741 7.97767 17.0728 8.31166 17.0728H13.4591C13.7931 17.0728 13.9503 16.8741 13.9503 16.5163C13.9503 16.1586 13.7931 15.9399 13.4591 15.9399H8.31166Z" fill="#121313"/>
<path fill-rule="evenodd" clip-rule="evenodd" d="M0.491237 15.94C0.157241 15.94 0.0197135 16.1387 0.0197135 16.5164C0.0197135 16.8741 0.157241 17.0729 0.491237 17.0729H5.65835C5.99234 17.0729 6.14952 16.8741 6.14952 16.5164C6.14952 16.1586 5.99234 15.94 5.65835 15.94H0.491237Z" fill="#121313"/>
<path fill-rule="evenodd" clip-rule="evenodd" d="M0.0196468 4.21356H1.47351V6.20109C1.96468 5.46571 2.49514 4.94895 3.00596 4.59119C3.73289 4.15394 4.49912 3.89556 5.28499 3.89556C5.81545 3.89556 6.32627 4.01481 6.83709 4.21356C7.30861 4.41232 7.7212 4.73032 8.03555 5.08808C8.33025 5.44583 8.6053 5.96259 8.84106 6.63835C9.31259 5.74396 9.92164 5.0682 10.6289 4.59119C11.3166 4.15394 12.1221 3.89556 12.9472 3.89556C13.7331 3.89556 14.4011 4.09431 14.9905 4.49182C15.5799 4.88932 16.0121 5.44583 16.3069 6.16134C16.6016 6.85698 16.7391 7.95012 16.7391 9.34139V15.5822H15.2852V9.36126C15.2852 8.14887 15.187 7.29423 15.0298 6.8371C14.853 6.37997 14.5386 5.98246 14.1457 5.72409C13.7331 5.44583 13.2419 5.3067 12.6722 5.3067C11.9649 5.3067 11.3559 5.52533 10.7665 5.94271C10.1967 6.3601 9.74482 6.93648 9.48941 7.61224C9.234 8.32775 9.09647 9.48052 9.09647 11.1103V15.5822H7.64261V9.75877C7.64261 8.3675 7.56402 7.43336 7.40685 6.95635C7.23003 6.45947 6.95497 6.06197 6.52274 5.78371C6.09051 5.48558 5.56005 5.32658 5.02958 5.34645C4.36159 5.34645 3.73289 5.54521 3.14349 5.96259C2.57373 6.3601 2.1415 6.9166 1.86645 7.61224C1.59139 8.30787 1.45386 9.36126 1.45386 10.7923V15.6419H0L0.0196468 4.21356ZM24.9711 3.89556C26.6607 3.89556 28.0556 4.55144 29.1755 5.80359C30.1971 6.95635 30.708 8.32775 30.708 9.93765C30.708 11.5277 30.1775 12.9189 29.0969 14.0916C28.036 15.2841 26.6607 15.8804 24.9907 15.8804C23.3011 15.8804 21.9455 15.2841 20.8649 14.0916C19.7843 12.9189 19.2539 11.5078 19.2539 9.93765C19.2539 8.34762 19.7647 6.97623 20.7863 5.82346C21.8865 4.55144 23.2815 3.89556 24.9711 3.89556ZM24.9711 5.34645C23.7923 5.34645 22.7903 5.78371 21.9455 6.69798C21.1007 7.59236 20.6684 8.6855 20.6684 9.9774C20.6684 10.7923 20.8649 11.5475 21.2382 12.2829C21.5918 12.9587 22.142 13.5351 22.7903 13.9127C23.4386 14.2903 24.1852 14.509 24.9318 14.509C25.698 14.509 26.425 14.3102 27.0733 13.9127C27.7413 13.5351 28.2521 12.9786 28.6254 12.2829C28.9987 11.5674 29.1952 10.7923 29.1952 9.9774C29.1952 8.6855 28.7629 7.59236 27.9181 6.69798C27.1519 5.80359 26.1499 5.34645 24.9711 5.34645ZM44.6179 0.0198753V15.6021H43.1837V13.6742C42.6336 14.3698 41.9263 14.9263 41.1601 15.3437C40.3742 15.7214 39.5294 15.9002 38.6846 15.9002C37.0932 15.9002 35.7375 15.3239 34.6177 14.1512C33.4978 12.9984 32.9084 11.5873 32.9084 9.91777C32.9084 8.30787 33.4782 6.9166 34.6177 5.76384C35.7375 4.61107 37.1128 4.03469 38.7239 4.03469C39.6473 4.03469 40.4921 4.23344 41.219 4.63094C41.9852 5.02845 42.6336 5.60483 43.1837 6.41972V0L44.6179 0.0198753ZM38.8614 5.42596C38.0362 5.42596 37.3093 5.64458 36.6217 6.02221C35.934 6.41972 35.3839 6.9961 35.0106 7.71162C34.6177 8.38737 34.4212 9.18239 34.4016 9.95752C34.4016 10.7724 34.6177 11.5078 35.0106 12.2233C35.4035 12.9189 35.9537 13.5152 36.6413 13.9326C37.3486 14.3301 38.0755 14.5288 38.8417 14.5288C39.6276 14.5288 40.3742 14.3301 41.1011 13.9326C41.7888 13.555 42.3389 12.9984 42.7318 12.3028C43.1051 11.627 43.2819 10.8519 43.2819 9.99727C43.2819 8.70538 42.8497 7.59236 41.9852 6.73773C41.1601 5.88309 40.0991 5.42596 38.8614 5.42596ZM57.2704 11.8059L58.4689 12.4817C58.1153 13.1972 57.6634 13.8531 57.0936 14.4096C56.5828 14.8866 55.9934 15.2642 55.3451 15.5425C54.6378 15.8009 53.9108 15.9201 53.1446 15.9201C51.3371 15.9201 49.9225 15.304 48.9009 14.0916C47.8793 12.8792 47.3685 11.5078 47.3685 9.95752C47.3685 8.48675 47.781 7.21473 48.6651 6.10172C49.7654 4.65082 51.2389 3.93531 53.066 3.93531C54.9325 3.93531 56.4453 4.67069 57.5848 6.14147C58.3903 7.19486 58.8029 8.46688 58.8029 10.037H48.842C48.8813 11.3488 49.2742 12.4419 50.0797 13.2966C50.8852 14.1313 51.8676 14.5686 53.0267 14.5686C53.5965 14.5686 54.127 14.4692 54.6574 14.2705C55.1486 14.0916 55.6005 13.8133 56.0131 13.4755C56.4453 13.0978 56.8382 12.5612 57.2704 11.8059ZM57.2704 8.72526C57.074 7.95012 56.7989 7.33398 56.4453 6.85698C56.072 6.37997 55.5612 6.00234 55.0111 5.74396C54.4217 5.46571 53.7733 5.3067 53.125 5.3067C52.0247 5.3067 51.1014 5.66446 50.3155 6.37997C49.7457 6.89673 49.3135 7.67187 49.0188 8.72526H57.2704ZM62.3197 4.21356V5.88309C62.7716 5.2272 63.2627 4.7502 63.7539 4.41232C64.2647 4.09431 64.7755 3.91543 65.3256 3.91543C65.7579 3.91543 66.1901 4.05456 66.6616 4.29306L65.8757 5.52533C65.5614 5.38621 65.306 5.32658 65.0899 5.32658C64.5987 5.32658 64.1075 5.52533 63.6557 5.92284C63.1841 6.32034 62.8501 6.95635 62.5947 7.79112C62.3983 8.447 62.3 9.75877 62.3 11.7264V15.5822H60.7872V4.21356H62.3197ZM68.312 4.21356H69.7462V6.26072C70.3159 5.48558 70.9643 4.88932 71.6716 4.51169C72.3592 4.13406 73.1451 3.91543 73.9506 3.91543C74.7954 3.91543 75.542 4.13406 76.1903 4.57132C76.819 5.00857 77.3298 5.60483 77.6245 6.32034C77.9389 7.05573 78.0961 8.18862 78.0961 9.75877V15.622H76.6618V10.196C76.6618 8.88426 76.6029 8.00974 76.485 7.55261C76.3279 6.79735 76.0135 6.24084 75.5223 5.86321C75.0705 5.48558 74.4418 5.28683 73.6755 5.28683C72.8111 5.28683 72.0252 5.56508 71.3376 6.16134C70.6499 6.7576 70.1981 7.47311 69.9819 8.32775C69.8444 8.90413 69.7658 9.95752 69.7658 11.4283V15.622H68.3316V4.21356H68.312ZM92.006 4.21356V15.622H90.6307V13.6742C90.0413 14.4096 89.3733 14.986 88.6464 15.3636C87.8998 15.7412 87.055 15.94 86.2102 15.94C84.6581 15.94 83.3221 15.3437 82.2415 14.1711C81.1413 13.0183 80.5912 11.6072 80.5912 9.91777C80.5912 8.30787 81.1413 6.87685 82.2612 5.70421C83.3811 4.55144 84.717 3.95518 86.2691 3.95518C87.1729 3.95518 87.9784 4.15394 88.7053 4.55144C89.4323 4.94895 90.0806 5.54521 90.6307 6.34022V4.23344H92.006V4.21356ZM86.387 5.32658C85.6011 5.32658 84.8742 5.52533 84.1866 5.92284C83.5186 6.34022 83.0078 6.89673 82.5952 7.63211C82.2219 8.32775 82.0058 9.12276 82.0058 9.91777C82.0058 10.7327 82.2219 11.5078 82.5952 12.2233C82.9685 12.9189 83.5186 13.5152 84.2062 13.9326C84.8939 14.3301 85.5815 14.5487 86.3674 14.5487C87.1336 14.5487 87.8802 14.35 88.5678 13.9326C89.2554 13.5351 89.7663 12.9786 90.1788 12.3028C90.5521 11.6072 90.7093 10.832 90.7093 9.9774C90.7093 8.66563 90.2967 7.55261 89.4716 6.6781C88.6268 5.76384 87.6051 5.32658 86.387 5.32658ZM94.3833 4.19369C94.5404 4.19369 94.7173 4.23344 94.8548 4.29306C95.012 4.37257 95.1495 4.51169 95.2084 4.65082C95.3067 4.80982 95.346 4.96882 95.346 5.16758C95.346 5.34646 95.3067 5.50546 95.2281 5.66446C95.1298 5.80359 95.012 5.94271 94.8548 6.04209C94.678 6.12159 94.5404 6.16134 94.3636 6.16134C94.2064 6.16134 94.0296 6.12159 93.8921 6.04209C93.7546 5.94271 93.617 5.82346 93.5188 5.66446C93.4402 5.50546 93.4009 5.34646 93.4009 5.16758C93.4009 4.96882 93.4402 4.80982 93.5188 4.65082C93.617 4.51169 93.7349 4.35269 93.8921 4.29306C94.0689 4.23344 94.2261 4.19369 94.3833 4.19369ZM94.3833 4.31294C94.2457 4.31294 94.1082 4.35269 93.9903 4.43219C93.8528 4.49182 93.7546 4.59119 93.6956 4.73032C93.617 4.86945 93.5777 5.00857 93.5777 5.16758C93.5777 5.3067 93.617 5.44583 93.6956 5.56508C93.7546 5.70421 93.8528 5.80359 93.9903 5.86321C94.1082 5.94271 94.2457 5.98246 94.3833 5.98246C94.5404 5.98246 94.678 5.94271 94.7959 5.86321C94.9334 5.80359 95.0316 5.70421 95.0906 5.56508C95.1495 5.42596 95.2084 5.28683 95.2084 5.16758C95.2084 5.02845 95.1495 4.86945 95.0906 4.73032C95.012 4.59119 94.9137 4.49182 94.7959 4.43219C94.678 4.35269 94.5208 4.31294 94.3833 4.31294ZM93.9707 5.70421V4.63094H94.3243C94.4619 4.63094 94.5404 4.63094 94.619 4.65082C94.6583 4.69057 94.7173 4.71045 94.7369 4.7502C94.7762 4.78995 94.7762 4.84957 94.7959 4.88932C94.7959 4.96882 94.7762 5.02845 94.7173 5.08808C94.6387 5.1477 94.5601 5.16758 94.4815 5.18745C94.5404 5.20733 94.5404 5.2272 94.5797 5.2272C94.619 5.26695 94.6583 5.34645 94.7173 5.44583L94.8548 5.64458H94.6387L94.5601 5.48558C94.4815 5.36633 94.4226 5.26695 94.3833 5.2272C94.344 5.20733 94.3047 5.18745 94.2457 5.18745H94.1475V5.64458H93.9707V5.70421ZM94.1279 5.08808H94.344C94.4422 5.08808 94.5208 5.08808 94.5601 5.04833C94.5994 5.00857 94.619 4.9887 94.619 4.92907C94.619 4.9092 94.5994 4.86945 94.5797 4.84957C94.5601 4.8297 94.5404 4.78995 94.5208 4.78995C94.4815 4.78995 94.4226 4.77007 94.3243 4.77007H94.1475L94.1279 5.08808Z" fill="#121313"/>
</svg>
