<svg width="221" height="32" viewBox="0 0 221 32" fill="none" xmlns="http://www.w3.org/2000/svg">
<path fill-rule="evenodd" clip-rule="evenodd" d="M130.166 0.0407924C130.861 0.151381 131.33 0.198634 131.951 0.220752C132.317 0.233762 132.916 0.269671 133.282 0.300531C133.648 0.331392 134.565 0.357206 135.319 0.357881C136.12 0.358609 136.691 0.38078 136.691 0.411171C136.691 0.439794 136.915 0.463213 137.19 0.463213C137.464 0.463213 137.689 0.486632 137.689 0.515256C137.689 0.543879 137.95 0.567298 138.271 0.567298C138.591 0.567298 138.852 0.543879 138.852 0.515256C138.852 0.486632 139.025 0.463213 139.235 0.463213C139.445 0.463213 139.707 0.435112 139.817 0.400765C139.972 0.35221 140.016 0.35221 140.016 0.400765C140.016 0.435112 140.203 0.463213 140.432 0.463213C140.661 0.463213 140.848 0.439794 140.848 0.411171C140.848 0.38255 141.105 0.359131 141.421 0.359131C141.735 0.359131 142.039 0.38255 142.095 0.411171C142.152 0.4399 142.901 0.463213 143.768 0.463213C144.704 0.463213 145.338 0.484237 145.338 0.515256C145.338 0.543879 145.481 0.567298 145.657 0.567298C145.832 0.567298 146.009 0.596597 146.051 0.632348C146.111 0.68439 146.197 0.68439 146.478 0.632348C146.9 0.554391 147.771 0.546533 147.916 0.619338C147.972 0.647961 148.164 0.67138 148.341 0.67138C148.519 0.67138 148.664 0.691103 148.664 0.71525C148.664 0.739347 148.994 0.812152 149.396 0.876996C149.975 0.970202 150.288 0.988261 150.892 0.96323C151.313 0.945847 152.013 0.917587 152.447 0.900518C152.881 0.883448 153.308 0.848322 153.394 0.822456C153.482 0.796591 153.874 0.775462 154.267 0.775462C154.661 0.775462 154.983 0.752043 154.983 0.723422C154.983 0.693498 155.497 0.67138 156.193 0.67138C157.213 0.67138 157.441 0.654986 157.643 0.567298C157.853 0.476173 158.074 0.463213 159.416 0.463213C160.26 0.463213 160.996 0.486632 161.052 0.515256C161.185 0.582648 163.512 0.583273 163.727 0.515984C163.958 0.443907 171.273 0.440628 171.503 0.512444C171.6 0.542629 171.925 0.567298 172.227 0.567298C172.528 0.567298 172.776 0.590714 172.776 0.619338C172.776 0.647961 173 0.67138 173.275 0.67138C173.549 0.67138 173.773 0.694799 173.773 0.723422C173.773 0.753502 174.3 0.775462 175.021 0.775462C175.741 0.775462 176.268 0.753502 176.268 0.723422C176.268 0.693134 176.818 0.67138 177.584 0.67138C178.486 0.67138 178.925 0.650929 178.976 0.606328C179.036 0.554285 179.121 0.554285 179.403 0.606328C179.66 0.653582 180.867 0.67138 183.822 0.67138C186.354 0.67138 187.928 0.691 187.992 0.723422C188.127 0.791856 190.569 0.791856 190.569 0.723422C190.569 0.694799 190.793 0.67138 191.068 0.67138C191.342 0.67138 191.567 0.647961 191.567 0.619338C191.567 0.590714 191.866 0.567298 192.232 0.567298C192.597 0.567298 192.897 0.543879 192.897 0.515256C192.897 0.484395 193.507 0.463213 194.393 0.463213C195.281 0.463213 195.89 0.484395 195.89 0.515256C195.89 0.58317 197.336 0.58317 197.47 0.515256C197.605 0.446508 200.547 0.446508 200.547 0.515256C200.547 0.58369 202.989 0.58369 203.123 0.515256C203.181 0.486216 203.957 0.463213 204.878 0.463213C206.35 0.463213 206.552 0.474559 206.738 0.567298C206.909 0.653218 207.125 0.67138 207.976 0.67138C208.544 0.67138 209.053 0.694799 209.11 0.723422C209.166 0.752043 209.728 0.775462 210.357 0.775462C210.987 0.775462 211.548 0.798881 211.605 0.827504C211.661 0.856128 211.886 0.879547 212.103 0.879547C212.321 0.879547 212.545 0.902966 212.602 0.931586C212.659 0.96021 213.094 0.983784 213.569 0.983943C214.474 0.984201 215.478 1.04998 216.178 1.15495C216.707 1.23431 218.34 1.71143 218.34 1.78679C218.34 1.81812 218.639 1.88437 219.004 1.93396C219.757 2.03596 219.855 2.15092 219.337 2.32495C219.004 2.43647 219.004 2.43757 219.331 2.61914C219.591 2.76474 219.677 2.9405 219.753 3.49282C219.806 3.87309 219.89 4.47473 219.94 4.82987C220.003 5.28168 219.971 5.51057 219.831 5.59221C219.704 5.66665 219.674 5.79081 219.748 5.93534C219.813 6.05988 219.901 6.4369 219.944 6.77326C219.987 7.10956 220.092 7.38474 220.178 7.38474C220.264 7.38474 220.334 7.53697 220.334 7.72302C220.334 7.90907 220.394 8.06127 220.468 8.06127C220.662 8.06127 221 8.38148 221 8.56537C221 8.65247 220.869 8.77983 220.709 8.84825C220.549 8.91673 220.324 9.02494 220.21 9.0888C219.962 9.22736 219.926 9.98683 220.168 9.98683C220.26 9.98683 220.334 10.0668 220.334 10.1646C220.334 10.2624 220.428 10.3523 220.543 10.3643C220.706 10.3815 220.703 10.4043 220.528 10.4705C220.397 10.5202 220.362 10.5823 220.444 10.622C220.705 10.7495 220.995 11.0539 220.997 11.2023C220.999 11.2839 220.776 11.4549 220.501 11.5822C220.227 11.7094 220.002 11.838 220.002 11.8679C220.002 11.8978 219.865 11.9845 219.698 12.0605C219.177 12.298 218.96 12.525 219.08 12.7053C219.222 12.9152 219.221 13.0779 219.078 13.3312C219.007 13.4573 219.041 13.5546 219.172 13.6043C219.446 13.7076 219.472 14.2033 219.213 14.3761C219.098 14.4522 218.917 14.5728 218.811 14.6441C218.663 14.7427 218.663 14.8056 218.811 14.9068C218.917 14.9799 219.004 15.1426 219.004 15.2684C219.004 15.3942 219.079 15.5116 219.17 15.5292C219.377 15.5691 219.391 15.799 219.19 15.8378C218.861 15.9015 218.834 16.2779 219.108 16.9887C219.352 17.6187 219.363 17.759 219.177 17.8672C218.999 17.9716 218.997 18.0258 219.165 18.1531C219.322 18.272 219.328 18.3506 219.189 18.4757C218.958 18.6833 218.943 19.9086 219.17 19.9528C219.37 19.9914 219.396 20.4472 219.199 20.4472C219.123 20.4472 218.955 20.5088 218.826 20.5841C218.577 20.7302 218.598 20.9529 218.871 21.0572C219.093 21.1418 219.075 21.9031 218.85 21.9737C218.752 22.0042 218.672 22.0934 218.672 22.1719C218.672 22.2504 218.597 22.329 218.506 22.3467C218.268 22.3926 218.289 23.5851 218.529 23.66C219.048 23.8227 219.001 25.0826 218.409 26.8563C218.347 27.0396 218.383 27.1934 218.505 27.2641C218.631 27.338 218.693 27.6519 218.681 28.1599C218.666 28.7949 218.599 29.0004 218.329 29.2525C218.145 29.4235 217.92 29.5905 217.831 29.624C216.89 29.974 216.843 30.003 216.843 30.2404C216.843 30.4528 216.777 30.4987 216.335 30.5973C216.055 30.6596 215.643 30.8018 215.418 30.9131C215.102 31.0695 214.904 31.1157 214.545 31.1157C214.291 31.1157 213.996 31.1426 213.892 31.1753C213.749 31.2199 213.58 31.2191 213.214 31.1716C212.739 31.1099 212.456 31.1109 207.879 31.1874C207.01 31.2019 206.265 31.2391 206.201 31.271C206.131 31.3064 205.105 31.3404 203.509 31.3599C201.308 31.3868 200.849 31.3789 200.38 31.3056C200.078 31.2584 199.654 31.2199 199.44 31.2199C199.226 31.2199 199.048 31.1906 199.047 31.1547C199.045 31.1093 199.007 31.1072 198.923 31.1471C198.855 31.179 198.464 31.2196 198.052 31.2378C197.025 31.2834 194.965 31.4085 194.061 31.48C193.249 31.5443 192.369 31.5311 190.831 31.4312C190.289 31.3961 189.653 31.3834 189.417 31.4032C189.182 31.423 188.316 31.457 187.492 31.4789C186.669 31.5008 185.697 31.5456 185.33 31.5786C184.965 31.6116 183.692 31.6517 182.504 31.6678C180.725 31.6918 180.194 31.6812 179.51 31.6082C178.691 31.5206 175.653 31.4232 174.355 31.443C172.136 31.4765 168.453 31.4267 168.453 31.3628C168.453 31.3415 168.318 31.3238 168.153 31.3238C167.989 31.3238 167.779 31.3006 167.688 31.2721C167.437 31.1935 164.446 31.1953 164.291 31.2739C163.998 31.4222 159.387 31.4185 158.225 31.2692C157.837 31.2191 156.725 31.1626 156.188 31.1655C155.552 31.1692 155.12 31.1645 153.506 31.1357C152.501 31.1178 151.884 31.1278 151.769 31.1639C151.671 31.1945 151.433 31.2199 151.241 31.2199C151.049 31.2199 150.817 31.2431 150.726 31.2716C150.468 31.3525 146.84 31.3586 146.682 31.2787C146.51 31.1919 143.706 31.1719 143.16 31.2536C142.49 31.3536 138.188 31.4385 137.557 31.3642C137.264 31.3293 137.023 31.2826 137.023 31.2605C137.023 31.2024 134.582 31.2098 134.236 31.2689C133.648 31.3692 131.384 31.4509 129.041 31.4565C126.663 31.4623 124.878 31.5045 120.311 31.663C117.462 31.7619 117.12 31.7627 116.669 31.6701C116.471 31.6298 115.432 31.5702 114.337 31.5369C113.252 31.5037 112.302 31.4647 112.227 31.4501C112.152 31.4359 111.397 31.4631 110.547 31.5106C108.902 31.6029 104.207 31.6227 103.864 31.5388C103.765 31.5142 102.447 31.4802 100.938 31.4633C98.0464 31.4306 95.1177 31.3285 95.1177 31.2602C95.1177 31.2381 94.3324 31.2199 93.3725 31.2199C92.2101 31.2199 91.6264 31.2006 91.6264 31.1624C91.6264 31.0985 89.5995 31.127 87.8846 31.2151C86.0559 31.3088 84.0695 31.4256 83.8461 31.4525C83.7248 31.467 83.3586 31.4441 83.0325 31.4013C82.2451 31.2985 82.1129 31.3019 81.051 31.4538C80.5511 31.5256 79.9285 31.5841 79.6675 31.5841C79.1348 31.5841 61.1253 31.5353 60.7328 31.7923C60.3403 32.0492 55.25 31.7923 55.25 31.7923C52.2977 31.9962 50.5092 32.0099 50.578 31.9962C50.6616 31.9796 50.6818 31.9271 50.6233 31.8791C50.5311 31.8039 50.218 31.7923 48.3119 31.7923C46.5622 31.7923 45.727 31.7654 44.2655 31.6622C43.2527 31.5905 42.0311 31.5319 41.551 31.5319C41.0709 31.5319 40.2506 31.5045 39.7283 31.4707C38.9023 31.4172 38.7229 31.4206 38.3523 31.4966C37.8913 31.5913 36.3395 31.6163 35.9335 31.5359C35.8047 31.5106 35.5802 31.509 35.4347 31.5324C35.151 31.5786 33.825 31.7002 32.5637 31.7957C31.8947 31.8464 31.7158 31.8416 31.2837 31.7619C30.792 31.6709 30.7642 31.6717 29.9827 31.7957C29.5433 31.8653 29.159 31.94 29.1286 31.9614C29.0484 32.0178 27.4858 32.0094 27.1446 31.9508C26.6422 31.8646 24.2571 31.7271 22.5324 31.6849C20.7531 31.6417 20.0011 31.5976 19.8649 31.5285C19.8181 31.505 19.4869 31.5179 19.1287 31.5575C18.2461 31.6548 16.8961 31.6641 14.7464 31.5868C13.7569 31.5512 12.9081 31.5343 12.8606 31.5491C12.813 31.5641 12.4253 31.5427 11.9994 31.5021C11.5353 31.4575 10.9462 31.4404 10.5301 31.4591C9.98009 31.4842 9.66867 31.4633 9.03359 31.3594C8.14641 31.2143 7.63789 31.1703 6.40218 31.132C5.94488 31.1178 5.49973 31.0848 5.41275 31.0589C5.32595 31.0328 5.12008 31.0117 4.95545 31.0117C4.79082 31.0117 4.65613 30.9883 4.65613 30.9595C4.65613 30.931 4.55203 30.9075 4.42466 30.9075C4.11918 30.9075 2.49436 30.4485 2.49436 30.3623C2.49436 30.2745 1.76834 30.127 1.33615 30.127C0.854233 30.127 0.867037 29.8492 1.35377 29.7424C1.70448 29.6656 1.70531 29.6614 1.41231 29.4683C1.23786 29.3533 1.08837 29.1098 1.05079 28.8798C1.01554 28.664 0.951346 28.3704 0.908116 28.2275C0.689606 27.5047 0.647203 26.4319 0.837273 26.4319C0.963822 26.4319 0.996744 26.3857 0.929398 26.3019C0.872031 26.2303 0.890984 26.1717 0.971472 26.1717C1.15206 26.1717 1.01371 25.9207 0.811663 25.8817C0.731012 25.8661 0.665162 25.6307 0.665162 25.3586C0.665162 25.0865 0.589001 24.8193 0.496045 24.765C0.402922 24.7106 0.308136 24.5263 0.285188 24.3555C0.262406 24.1846 0.188739 24.0277 0.121725 24.0068C0.0548756 23.9858 0 23.7991 0 23.5919C0 23.3134 0.092125 23.1562 0.353367 22.9891C0.547761 22.8648 0.760613 22.7279 0.826298 22.685C0.89198 22.642 1.03233 22.5542 1.13809 22.4898C1.24385 22.4254 1.40449 22.3266 1.49495 22.2701C1.58558 22.2137 1.70781 22.0058 1.76651 21.8079C1.84948 21.5286 1.81273 21.4103 1.60188 21.278C1.26697 21.068 1.21858 20.3634 1.53669 20.3302C1.68286 20.315 1.65392 20.2808 1.43691 20.2129C1.08804 20.1037 1.15372 19.8203 1.58891 19.5569C1.87227 19.3855 1.81157 18.6514 1.50626 18.5559C1.28276 18.4859 1.27428 17.7059 1.49662 17.6629C1.78064 17.6081 1.695 17.1097 1.38304 17.0019C1.13975 16.9178 0.8253 16.5189 0.816986 16.2838C0.815488 16.2409 0.926741 16.0543 1.06426 15.869C1.20178 15.6838 1.26165 15.5199 1.19729 15.5047C0.844254 15.4216 0.633733 15.1864 0.745646 15.0006C0.956837 14.6501 1.03565 12.7361 0.84143 12.6753C0.610618 12.6031 0.613445 12.1055 0.84492 12.033C0.960161 11.997 1.02518 11.643 1.02634 11.0469C1.02718 10.5354 1.08687 10.0935 1.15888 10.0649C1.42411 9.95934 1.46236 9.39339 1.21459 9.2409C1.08271 9.15983 0.955504 8.92602 0.931895 8.72137C0.908108 8.51675 0.919756 8.37832 0.957504 8.41377C0.995251 8.44925 1.09452 8.46502 1.17817 8.44883C1.39651 8.40662 1.3664 8.11332 1.14374 8.11332C0.958668 8.11332 1.00024 7.68746 1.26497 6.8735C1.33564 6.65653 1.30821 6.52435 1.18498 6.48578C0.953176 6.41322 0.936551 5.94558 1.16403 5.90155C1.25549 5.88385 1.33033 5.81693 1.33033 5.75278C1.33033 5.6886 1.4163 5.60925 1.52139 5.57636C1.66524 5.53133 1.64461 5.48424 1.43825 5.38566C1.28742 5.31365 1.16403 5.17387 1.16403 5.07508C1.16403 4.97627 1.07058 4.88352 0.956171 4.86899C0.794535 4.84849 0.798527 4.83164 0.97396 4.79312C1.10716 4.76392 1.15688 4.70143 1.09519 4.64068C0.978785 4.52583 1.85248 3.4069 2.24342 3.17031C2.38144 3.0868 2.49436 2.98213 2.49436 2.93778C2.49436 2.89339 2.56918 2.85712 2.66065 2.85712C2.75211 2.85712 2.82694 2.8103 2.82694 2.75305C2.82694 2.69579 2.89296 2.64896 2.97377 2.64896C3.05442 2.64896 3.32697 2.51693 3.57924 2.35555C4.09274 2.02706 5.1979 1.66017 5.674 1.66017C5.84577 1.66017 5.98646 1.63675 5.98646 1.60813C5.98646 1.57951 6.13612 1.55609 6.31904 1.55609C6.50196 1.55609 6.65162 1.53267 6.65162 1.50404C6.65162 1.47542 6.76869 1.452 6.9117 1.452C7.05471 1.452 7.58085 1.39346 8.08072 1.3219C8.58062 1.25034 9.09508 1.1918 9.2243 1.1918C9.35336 1.1918 9.50519 1.16838 9.56171 1.13975C9.61822 1.11113 9.84277 1.08771 10.0606 1.08771C10.2784 1.08771 10.4938 1.06893 10.5392 1.04597C10.5844 1.02303 11.0051 0.971555 11.474 0.931586C11.9429 0.89162 12.3637 0.84015 12.4089 0.817201C12.4544 0.794249 12.7114 0.775462 12.9805 0.775462C13.2495 0.775462 13.4695 0.752043 13.4695 0.723422C13.4695 0.690375 14.7411 0.67138 16.9518 0.67138C19.094 0.67138 20.4737 0.691415 20.5369 0.723422C20.6956 0.803774 24.109 0.791387 24.1253 0.71041C24.1357 0.65837 24.1552 0.65837 24.2222 0.71041C24.322 0.787797 25.5434 0.79857 25.6918 0.723422C25.7484 0.694799 25.9212 0.673045 26.0758 0.675023C26.3052 0.678041 26.2955 0.686941 26.0244 0.723422C25.7742 0.757092 25.8875 0.769063 26.4818 0.771819C26.9163 0.773798 27.2717 0.752043 27.2717 0.723422C27.2717 0.694799 27.3838 0.67138 27.5211 0.67138C27.6582 0.67138 27.7705 0.694799 27.7705 0.723422C27.7705 0.754958 28.4879 0.775462 29.5899 0.775462C30.6233 0.775462 31.4537 0.797945 31.5121 0.827504C31.6499 0.897344 37.028 0.897344 37.1659 0.827504C37.3072 0.755947 37.872 0.761827 37.9507 0.835727C38.0305 0.910615 39.1329 0.906192 39.2134 0.830628C39.2882 0.760579 39.9097 0.75777 39.9097 0.827504C39.9097 0.856128 40.0444 0.879547 40.209 0.879547C40.3737 0.879547 40.5794 0.900104 40.6664 0.92529C41.0651 1.04067 41.991 1.03473 42.7656 0.91176C43.2104 0.841192 43.6052 0.807884 43.6885 0.833957C43.7686 0.859043 45.0212 0.885427 46.4718 0.892557C48.4642 0.902393 49.1269 0.889642 49.1798 0.840514C49.2592 0.766565 49.8871 0.750534 49.8871 0.822456C49.8871 0.923989 55.8134 1.03151 56.449 0.941528C56.6356 0.915089 56.9985 0.862163 57.2558 0.823964C57.6241 0.769218 57.7912 0.767709 58.0434 0.816993C58.2194 0.851393 58.5096 0.879547 58.6884 0.879547C58.8671 0.879547 59.0597 0.902966 59.1162 0.931586C59.1728 0.96021 59.4578 0.983265 59.7496 0.982848C60.0643 0.982381 60.1978 0.965623 60.0779 0.941787C59.9614 0.918629 60.1721 0.897814 60.5742 0.892818C60.9587 0.88803 61.2992 0.859665 61.331 0.829794C61.3628 0.799923 61.5323 0.775462 61.7076 0.775462C61.8828 0.775462 62.0264 0.752043 62.0264 0.723422C62.0264 0.694799 62.4005 0.67138 62.8578 0.67138C63.3151 0.67138 63.6892 0.694799 63.6892 0.723422C63.6892 0.752043 63.8719 0.775462 64.0951 0.775462C64.3185 0.775462 64.5473 0.798881 64.6039 0.827504C64.7379 0.895366 66.9642 0.895366 67.0982 0.827504C67.2326 0.759487 69.1768 0.759487 69.1768 0.827504C69.1768 0.856128 69.3265 0.879547 69.5094 0.879547C69.6924 0.879547 69.842 0.856128 69.842 0.827504C69.842 0.798881 69.9543 0.775462 70.0914 0.775462C70.2287 0.775462 70.3408 0.798881 70.3408 0.827504C70.3408 0.858365 70.9506 0.879547 71.8375 0.879547C72.7243 0.879547 73.334 0.858365 73.334 0.827504C73.334 0.75959 74.7798 0.75959 74.9139 0.827504C75.0518 0.897397 79.4869 0.897397 79.4869 0.827504C79.4869 0.798881 79.7113 0.775462 79.9857 0.775462C80.2601 0.775462 80.4846 0.798881 80.4846 0.827504C80.4846 0.860499 81.7318 0.879547 83.8935 0.879547C86.055 0.879547 87.3026 0.860499 87.3026 0.827504C87.3026 0.798881 87.6763 0.775462 88.1343 0.775462C88.5915 0.775462 88.9652 0.798881 88.9652 0.827504C88.9652 0.85722 89.4628 0.879547 90.1241 0.879547C90.9752 0.879547 91.4409 0.85186 91.8753 0.775462C92.2945 0.701773 92.7761 0.67138 93.5243 0.67138C94.4404 0.67138 94.5922 0.657589 94.6673 0.567298C94.7255 0.497769 94.8942 0.463213 95.1759 0.463213C95.4079 0.463213 95.6432 0.439794 95.6998 0.411171C95.8339 0.343415 97.3952 0.343415 97.5293 0.411171C97.5858 0.439794 97.8102 0.463213 98.0278 0.463213C98.2463 0.463213 98.4707 0.486632 98.5272 0.515256C98.701 0.603154 99.3732 0.573022 99.6912 0.463213C99.9207 0.383851 100.203 0.359131 100.881 0.359131C101.37 0.359131 101.77 0.38255 101.77 0.411171C101.77 0.439794 102.182 0.463213 102.687 0.463213C103.191 0.463213 103.762 0.492462 103.955 0.528266C104.237 0.580308 104.323 0.580308 104.383 0.528266C104.432 0.486216 104.806 0.463213 105.442 0.463213C105.987 0.463213 106.426 0.440003 106.426 0.411171C106.426 0.38255 106.613 0.359131 106.842 0.359131C107.07 0.359131 107.258 0.38255 107.258 0.411171C107.258 0.439794 107.594 0.463213 108.006 0.463213C108.417 0.463213 108.754 0.486632 108.754 0.515256C108.754 0.543879 109.011 0.567298 109.326 0.567298C109.641 0.567298 109.945 0.590714 110.001 0.619338C110.058 0.647961 110.287 0.67138 110.51 0.67138C110.733 0.67138 110.916 0.694799 110.916 0.723422C110.916 0.753658 111.459 0.775462 112.215 0.775462C113.284 0.775462 113.577 0.757039 113.871 0.67138C114.067 0.614133 114.343 0.567298 114.484 0.567298C114.625 0.567298 114.74 0.543879 114.74 0.515256C114.74 0.486632 114.966 0.463213 115.241 0.463213C115.723 0.463213 115.87 0.478149 116.692 0.611221C117.148 0.684962 118.731 0.691259 118.731 0.619338C118.731 0.590714 118.956 0.567298 119.23 0.567298C119.504 0.567298 119.729 0.543879 119.729 0.515256C119.729 0.486632 119.864 0.463213 120.028 0.463213C120.193 0.463213 120.417 0.435112 120.528 0.400765C120.683 0.35221 120.727 0.35221 120.727 0.400765C120.727 0.435162 120.946 0.463213 121.216 0.463213C121.485 0.463213 121.752 0.486632 121.808 0.515256C121.865 0.543879 122.093 0.567298 122.317 0.567298C122.539 0.567298 122.722 0.590714 122.722 0.619338C122.722 0.649939 123.305 0.67138 124.136 0.67138C124.967 0.67138 125.549 0.649939 125.549 0.619338C125.549 0.590714 125.647 0.567298 125.766 0.567298C126.071 0.567298 126.877 0.444896 126.878 0.398161C126.879 0.376668 126.962 0.359131 127.062 0.359131C127.262 0.359131 128.409 0.199987 128.543 0.15367C128.588 0.13785 128.776 0.0970492 128.959 0.062962C129.363 -0.0126545 129.782 -0.0203046 130.166 0.0407924Z" fill="#CBC3E8"/>
</svg>
