<svg width="99" height="23" viewBox="0 0 99 23" fill="none" xmlns="http://www.w3.org/2000/svg">
<path d="M84.6328 22.6657V6.87381H88.3485V8.70071C89.4633 7.09056 91.2592 6.5332 93.0242 6.5332C96.9876 6.5332 99.0003 9.25807 99.0003 13.0667V22.6657H95.2846V13.686C95.2846 11.2398 93.9841 9.90833 91.8785 9.90833C89.5871 9.90833 88.3485 11.4256 88.3485 13.8408V22.6657H84.6328Z" fill="#121313"/>
<path d="M74.3579 23.0063C69.4965 23.0063 66.1523 19.6002 66.1523 14.7697C66.1523 9.93929 69.4965 6.5332 74.3579 6.5332C79.2503 6.5332 82.5635 9.90833 82.5945 14.7697C82.5945 19.6002 79.2503 23.0063 74.3579 23.0063ZM74.3579 19.6931C77.0209 19.6931 78.8478 17.6494 78.8478 14.7697C78.8478 11.8591 77.0209 9.8464 74.3579 9.8464C71.7259 9.8464 69.8681 11.8901 69.8681 14.7697C69.8681 17.6804 71.7259 19.6931 74.3579 19.6931Z" fill="#121313"/>
<path d="M60.3805 22.666V6.8741H64.0962V22.666H60.3805ZM62.2384 4.58274C60.8759 4.58274 59.916 3.59187 59.916 2.2604C59.916 0.990862 60.8759 0 62.2384 0C63.6008 0 64.5916 0.990862 64.5916 2.2604C64.5916 3.59187 63.6008 4.58274 62.2384 4.58274Z" fill="#121313"/>
<path d="M56.1361 22.9448C52.2656 22.9448 50.8722 20.7773 50.8722 17.4332V10.0017H48.0234V7.02912H48.6118C50.4077 7.02912 51.1818 5.97633 51.1818 4.4281V2.87988H54.5879V6.87429H58.4275V10.0017H54.5879V17.0926C54.5879 18.7956 55.2072 19.7245 57.1889 19.7245C57.6534 19.7245 58.1178 19.6626 58.4275 19.6007V22.6971C57.7153 22.8519 57.0031 22.9448 56.1361 22.9448Z" fill="#121313"/>
<path d="M39.9302 23.0063C35.0688 23.0063 31.7246 19.6621 31.7246 14.7697C31.7246 9.8464 35.0688 6.5332 39.9302 6.5332C44.2962 6.5332 47.2068 8.91746 47.7332 13.0977H43.9865C43.584 10.9611 41.9429 9.8464 39.9302 9.8464C37.2672 9.8464 35.4403 11.7662 35.4403 14.7697C35.4403 17.7423 37.2672 19.6931 39.9302 19.6931C41.9119 19.6931 43.553 18.6093 43.9556 16.5657H47.7332C47.2068 20.653 44.2652 23.0063 39.9302 23.0063Z" fill="#121313"/>
<path d="M22.6802 23.0063C17.8188 23.0063 14.4746 19.755 14.4746 14.7697C14.4746 9.7535 17.8188 6.5332 22.6802 6.5332C27.6345 6.5332 30.7619 9.53675 30.3594 15.451H18.1284C18.3761 18.2068 20.0792 19.8169 22.7111 19.8169C24.8477 19.8169 26.2411 18.857 26.5817 17.2469H30.2974C29.6472 20.9007 26.7675 23.0063 22.6802 23.0063ZM18.3761 12.7261H26.6746C26.4578 10.7753 24.9716 9.69158 22.6802 9.69158C20.8223 9.69158 19.0264 10.5276 18.3761 12.7261Z" fill="#121313"/>
<path d="M6.8741 23.0063C2.91066 23.0063 0.216751 21.0246 0 17.4017H3.43705C3.6538 19.1357 4.98527 20.1266 6.99796 20.1266C8.76293 20.1266 9.53705 19.3834 9.53705 18.4545C9.53705 15.389 0.402538 17.3398 0.402538 11.1779C0.402538 8.29818 2.7868 6.5332 6.56446 6.5332C10.2183 6.5332 12.7573 8.63878 13.0051 11.89H9.56801C9.32029 10.3418 8.11268 9.38193 6.47157 9.38193C4.92335 9.38193 4.02538 10.0322 4.02538 11.054C4.02538 14.2743 13.1599 12.2307 13.1599 18.2997C13.1599 20.9936 11.2091 23.0063 6.8741 23.0063Z" fill="#121313"/>
</svg>
