<svg width="61" height="21" viewBox="0 0 61 21" fill="none" xmlns="http://www.w3.org/2000/svg">
<path d="M3.0091 12.4635V0H0V12.6203C0 17.3626 3.32174 20.4981 7.62046 20.4981C9.73074 20.4981 11.5675 19.675 12.9352 18.2641V20.1454H15.9053V0H12.8962V12.4635C12.8962 15.6773 10.7468 17.833 7.97217 17.833C5.15846 17.7938 3.0091 15.7165 3.0091 12.4635ZM18.8753 20.1846H21.7281V18.3425C23.0568 19.7142 24.9326 20.5373 26.9647 20.5373C31.2634 20.5373 34.6633 17.1275 34.6633 12.8554C34.6633 8.58334 31.2634 5.17352 26.9647 5.17352C24.9326 5.17352 23.0958 5.99658 21.7671 7.36835V0H18.8753V20.1846ZM21.7281 12.8554C21.7281 9.9943 23.9947 7.76028 26.7693 7.76028C29.5439 7.76028 31.8105 9.9943 31.8105 12.8554C31.8105 15.6773 29.5439 17.9505 26.7693 17.9505C23.9556 17.9505 21.7281 15.6773 21.7281 12.8554ZM36.3828 12.8162C36.3828 17.2059 39.7827 20.4981 44.1596 20.4981C46.817 20.4981 49.0054 19.3223 50.4904 17.3626L48.3801 15.7949C47.2859 17.2451 45.84 17.9505 44.1596 17.9505C41.6976 17.9505 39.7045 16.1476 39.3137 13.7569H51.2329V12.8162C51.2329 8.42657 48.1456 5.17352 43.9251 5.17352C39.6264 5.17352 36.3828 8.66173 36.3828 12.8162ZM43.8469 7.72109C45.9963 7.72109 47.7939 9.21043 48.302 11.4836H39.3528C39.8999 9.21043 41.6976 7.72109 43.8469 7.72109ZM60.8855 8.07382V5.36949H59.8694C58.2672 5.36949 57.0948 6.11416 56.3523 7.28996V5.48707H53.5386V20.1846H56.4304V11.7972C56.4304 9.52398 57.7982 8.03463 59.7131 8.03463H60.8855V8.07382Z" fill="#121313"/>
</svg>
