<svg width="152" height="32" viewBox="0 0 152 32" fill="none" xmlns="http://www.w3.org/2000/svg">
<path fill-rule="evenodd" clip-rule="evenodd" d="M89.5263 0.0407924C90.0037 0.151381 90.3263 0.198634 90.7539 0.220752C91.0057 0.233762 91.4176 0.269671 91.6688 0.300531C91.9205 0.331392 92.5512 0.357206 93.0698 0.357881C93.621 0.358609 94.0137 0.38078 94.0137 0.411171C94.0137 0.439794 94.1681 0.463213 94.3566 0.463213C94.5452 0.463213 94.7001 0.486632 94.7001 0.515256C94.7001 0.543879 94.8799 0.567298 95.1004 0.567298C95.3203 0.567298 95.5001 0.543879 95.5001 0.515256C95.5001 0.486632 95.619 0.463213 95.7635 0.463213C95.9079 0.463213 96.0884 0.435112 96.1638 0.400765C96.2705 0.35221 96.3007 0.35221 96.3007 0.400765C96.3007 0.435112 96.4295 0.463213 96.5867 0.463213C96.7439 0.463213 96.8727 0.439794 96.8727 0.411171C96.8727 0.38255 97.0497 0.359131 97.2667 0.359131C97.4831 0.359131 97.6919 0.38255 97.7308 0.411171C97.7697 0.4399 98.2848 0.463213 98.8812 0.463213C99.5246 0.463213 99.9609 0.484237 99.9609 0.515256C99.9609 0.543879 100.06 0.567298 100.18 0.567298C100.301 0.567298 100.423 0.596597 100.451 0.632348C100.492 0.68439 100.551 0.68439 100.745 0.632348C101.035 0.554391 101.635 0.546533 101.734 0.619338C101.773 0.647961 101.904 0.67138 102.026 0.67138C102.149 0.67138 102.248 0.691103 102.248 0.71525C102.248 0.739347 102.475 0.812152 102.752 0.876996C103.151 0.970202 103.366 0.988261 103.781 0.96323C104.071 0.945847 104.552 0.917587 104.85 0.900518C105.149 0.883448 105.443 0.848322 105.502 0.822456C105.562 0.796591 105.832 0.775462 106.102 0.775462C106.373 0.775462 106.594 0.752043 106.594 0.723422C106.594 0.693498 106.948 0.67138 107.427 0.67138C108.128 0.67138 108.286 0.654986 108.424 0.567298C108.569 0.476173 108.721 0.463213 109.644 0.463213C110.224 0.463213 110.73 0.486632 110.769 0.515256C110.86 0.582648 112.461 0.583273 112.609 0.515984C112.767 0.443907 117.799 0.440628 117.957 0.512444C118.023 0.542629 118.247 0.567298 118.455 0.567298C118.662 0.567298 118.832 0.590714 118.832 0.619338C118.832 0.647961 118.986 0.67138 119.176 0.67138C119.364 0.67138 119.518 0.694799 119.518 0.723422C119.518 0.753502 119.88 0.775462 120.376 0.775462C120.872 0.775462 121.234 0.753502 121.234 0.723422C121.234 0.693134 121.612 0.67138 122.14 0.67138C122.76 0.67138 123.061 0.650929 123.097 0.606328C123.138 0.554285 123.197 0.554285 123.39 0.606328C123.567 0.653582 124.397 0.67138 126.43 0.67138C128.171 0.67138 129.253 0.691 129.297 0.723422C129.39 0.791856 131.07 0.791856 131.07 0.723422C131.07 0.694799 131.224 0.67138 131.413 0.67138C131.602 0.67138 131.756 0.647961 131.756 0.619338C131.756 0.590714 131.962 0.567298 132.214 0.567298C132.465 0.567298 132.671 0.543879 132.671 0.515256C132.671 0.484395 133.091 0.463213 133.7 0.463213C134.311 0.463213 134.73 0.484395 134.73 0.515256C134.73 0.58317 135.724 0.58317 135.817 0.515256C135.909 0.446508 137.932 0.446508 137.932 0.515256C137.932 0.58369 139.612 0.58369 139.705 0.515256C139.744 0.486216 140.278 0.463213 140.912 0.463213C141.924 0.463213 142.063 0.474559 142.191 0.567298C142.309 0.653218 142.457 0.67138 143.042 0.67138C143.433 0.67138 143.783 0.694799 143.822 0.723422C143.861 0.752043 144.247 0.775462 144.68 0.775462C145.113 0.775462 145.499 0.798881 145.538 0.827504C145.577 0.856128 145.731 0.879547 145.881 0.879547C146.031 0.879547 146.185 0.902966 146.224 0.931586C146.263 0.96021 146.562 0.983784 146.889 0.983943C147.511 0.984201 148.202 1.04998 148.683 1.15495C149.048 1.23431 150.17 1.71143 150.17 1.78679C150.17 1.81812 150.376 1.88437 150.627 1.93396C151.145 2.03596 151.212 2.15092 150.856 2.32495C150.627 2.43647 150.627 2.43757 150.852 2.61914C151.031 2.76474 151.09 2.9405 151.143 3.49282C151.179 3.87309 151.237 4.47473 151.271 4.82987C151.314 5.28168 151.292 5.51057 151.196 5.59221C151.108 5.66665 151.088 5.79081 151.139 5.93534C151.184 6.05988 151.244 6.4369 151.274 6.77326C151.303 7.10956 151.376 7.38474 151.435 7.38474C151.494 7.38474 151.542 7.53697 151.542 7.72302C151.542 7.90907 151.583 8.06127 151.634 8.06127C151.767 8.06127 152 8.38148 152 8.56537C152 8.65247 151.91 8.77983 151.8 8.84825C151.69 8.91673 151.535 9.02494 151.457 9.0888C151.286 9.22736 151.261 9.98683 151.428 9.98683C151.491 9.98683 151.542 10.0668 151.542 10.1646C151.542 10.2624 151.607 10.3523 151.686 10.3643C151.798 10.3815 151.796 10.4043 151.676 10.4705C151.585 10.5202 151.561 10.5823 151.618 10.622C151.797 10.7495 151.997 11.0539 151.998 11.2023C151.999 11.2839 151.846 11.4549 151.657 11.5822C151.468 11.7094 151.314 11.838 151.314 11.8679C151.314 11.8978 151.22 11.9845 151.105 12.0605C150.746 12.298 150.597 12.525 150.68 12.7053C150.777 12.9152 150.776 13.0779 150.678 13.3312C150.629 13.4573 150.652 13.5546 150.743 13.6043C150.931 13.7076 150.949 14.2033 150.771 14.3761C150.692 14.4522 150.568 14.5728 150.495 14.6441C150.393 14.7427 150.393 14.8056 150.495 14.9068C150.568 14.9799 150.627 15.1426 150.627 15.2684C150.627 15.3942 150.679 15.5116 150.742 15.5292C150.884 15.5691 150.893 15.799 150.755 15.8378C150.529 15.9015 150.51 16.2779 150.699 16.9887C150.866 17.6187 150.874 17.759 150.746 17.8672C150.624 17.9716 150.622 18.0258 150.738 18.1531C150.846 18.272 150.85 18.3506 150.754 18.4757C150.595 18.6833 150.585 19.9086 150.742 19.9528C150.879 19.9914 150.897 20.4472 150.761 20.4472C150.709 20.4472 150.594 20.5088 150.505 20.5841C150.333 20.7302 150.348 20.9529 150.536 21.0572C150.688 21.1418 150.676 21.9031 150.521 21.9737C150.454 22.0042 150.399 22.0934 150.399 22.1719C150.399 22.2504 150.347 22.329 150.285 22.3467C150.121 22.3926 150.135 23.5851 150.3 23.66C150.658 23.8227 150.625 25.0826 150.218 26.8563C150.175 27.0396 150.2 27.1934 150.284 27.2641C150.371 27.338 150.413 27.6519 150.405 28.1599C150.395 28.7949 150.349 29.0004 150.163 29.2525C150.036 29.4235 149.882 29.5905 149.82 29.624C149.173 29.974 149.141 30.003 149.141 30.2404C149.141 30.4528 149.096 30.4987 148.791 30.5973C148.599 30.6596 148.315 30.8018 148.161 30.9131C147.944 31.0695 147.807 31.1157 147.561 31.1157C147.385 31.1157 147.183 31.1426 147.111 31.1753C147.013 31.2199 146.897 31.2191 146.645 31.1716C146.318 31.1099 146.124 31.1109 142.976 31.1874C142.378 31.2019 141.865 31.2391 141.822 31.271C141.774 31.3064 141.068 31.3404 139.97 31.3599C138.456 31.3868 138.14 31.3789 137.818 31.3056C137.61 31.2584 137.319 31.2199 137.171 31.2199C137.024 31.2199 136.902 31.1906 136.901 31.1547C136.9 31.1093 136.874 31.1072 136.816 31.1471C136.769 31.179 136.5 31.2196 136.217 31.2378C135.51 31.2834 134.094 31.4085 133.472 31.48C132.914 31.5443 132.308 31.5311 131.25 31.4312C130.877 31.3961 130.44 31.3834 130.278 31.4032C130.116 31.423 129.52 31.457 128.954 31.4789C128.388 31.5008 127.719 31.5456 127.467 31.5786C127.216 31.6116 126.34 31.6517 125.523 31.6678C124.299 31.6918 123.935 31.6812 123.464 31.6082C122.901 31.5206 120.811 31.4232 119.919 31.443C118.392 31.4765 115.859 31.4267 115.859 31.3628C115.859 31.3415 115.766 31.3238 115.653 31.3238C115.54 31.3238 115.396 31.3006 115.333 31.2721C115.16 31.1935 113.103 31.1953 112.996 31.2739C112.795 31.4222 109.623 31.4185 108.824 31.2692C108.558 31.2191 107.793 31.1626 107.423 31.1655C106.986 31.1692 106.689 31.1645 105.579 31.1357C104.888 31.1178 104.463 31.1278 104.384 31.1639C104.317 31.1945 104.153 31.2199 104.021 31.2199C103.889 31.2199 103.73 31.2431 103.667 31.2716C103.489 31.3525 100.994 31.3586 100.885 31.2787C100.767 31.1919 98.8383 31.1719 98.4629 31.2536C98.0023 31.3536 95.0435 31.4385 94.6096 31.3642C94.4077 31.3293 94.2423 31.2826 94.2423 31.2605C94.2423 31.2024 92.5634 31.2098 92.3249 31.2689C91.9206 31.3692 90.3634 31.4509 88.7523 31.4565C87.1163 31.4623 85.8893 31.5045 82.7478 31.663C80.788 31.7619 80.553 31.7627 80.2432 31.6701C80.1069 31.6298 79.3922 31.5702 78.6391 31.5369C77.8925 31.5037 77.2392 31.4647 77.1876 31.4501C77.1365 31.4359 76.6167 31.4631 76.0325 31.5106C74.9006 31.6029 71.6715 31.6227 71.4359 31.5388C71.3675 31.5142 70.4613 31.4802 69.4234 31.4633C67.4346 31.4306 65.4203 31.3285 65.4203 31.2602C65.4203 31.2381 64.8802 31.2199 64.22 31.2199C63.4206 31.2199 63.0191 31.2006 63.0191 31.1624C63.0191 31.0985 61.625 31.127 60.4455 31.2151C59.1878 31.3088 57.8216 31.4256 57.6679 31.4525C57.5844 31.467 57.3326 31.4441 57.1083 31.4013C56.5667 31.2985 56.4758 31.3019 55.7455 31.4538C55.4017 31.5256 54.9735 31.5841 54.794 31.5841C54.4275 31.5841 42.0409 31.5353 41.771 31.7923C41.501 32.0492 38 31.7923 38 31.7923C35.9695 31.9962 34.7394 32.0099 34.7867 31.9962C34.8441 31.9796 34.8581 31.9271 34.8179 31.8791C34.7545 31.8039 34.5391 31.7923 33.2281 31.7923C32.0247 31.7923 31.4503 31.7654 30.4451 31.6622C29.7484 31.5905 28.9083 31.5319 28.578 31.5319C28.2479 31.5319 27.6837 31.5045 27.3244 31.4707C26.7564 31.4172 26.633 31.4206 26.378 31.4966C26.061 31.5913 24.9937 31.6163 24.7144 31.5359C24.6259 31.5106 24.4714 31.509 24.3713 31.5324C24.1762 31.5786 23.2642 31.7002 22.3967 31.7957C21.9366 31.8464 21.8136 31.8416 21.5164 31.7619C21.1782 31.6709 21.1591 31.6717 20.6216 31.7957C20.3194 31.8653 20.0551 31.94 20.0341 31.9614C19.979 32.0178 18.9043 32.0094 18.6696 31.9508C18.3241 31.8646 16.6836 31.7271 15.4974 31.6849C14.2736 31.6417 13.7564 31.5976 13.6627 31.5285C13.6306 31.505 13.4027 31.5179 13.1564 31.5575C12.5493 31.6548 11.6209 31.6641 10.1423 31.5868C9.46177 31.5512 8.87796 31.5343 8.8453 31.5491C8.81258 31.5641 8.54594 31.5427 8.25296 31.5021C7.93376 31.4575 7.52864 31.4404 7.24245 31.4591C6.86413 31.4842 6.64994 31.4633 6.21315 31.3594C5.60296 31.2143 5.25321 31.1703 4.40331 31.132C4.08879 31.1178 3.78262 31.0848 3.7228 31.0589C3.6631 31.0328 3.5215 31.0117 3.40828 31.0117C3.29505 31.0117 3.20241 30.9883 3.20241 30.9595C3.20241 30.931 3.13081 30.9075 3.0432 30.9075C2.8331 30.9075 1.71558 30.4485 1.71558 30.3623C1.71558 30.2745 1.21623 30.127 0.918979 30.127C0.587526 30.127 0.596333 29.8492 0.931099 29.7424C1.17231 29.6656 1.17288 29.6614 0.971361 29.4683C0.85138 29.3533 0.748565 29.1098 0.722714 28.8798C0.698469 28.664 0.654319 28.3704 0.624587 28.2275C0.474299 27.5047 0.445135 26.4319 0.575862 26.4319C0.6629 26.4319 0.685543 26.3857 0.639224 26.3019C0.599768 26.2303 0.612804 26.1717 0.668162 26.1717C0.792367 26.1717 0.69721 25.9207 0.558248 25.8817C0.502778 25.8661 0.457487 25.6307 0.457487 25.3586C0.457487 25.0865 0.405105 24.8193 0.341171 24.765C0.277123 24.7106 0.211931 24.5263 0.196147 24.3555C0.180479 24.1846 0.129811 24.0277 0.0837201 24.0068C0.0377425 23.9858 0 23.7991 0 23.5919C0 23.3134 0.063362 23.1562 0.24304 22.9891C0.376741 22.8648 0.523136 22.7279 0.568313 22.685C0.613488 22.642 0.71002 22.5542 0.782759 22.4898C0.855499 22.4254 0.965983 22.3266 1.0282 22.2701C1.09054 22.2137 1.1746 22.0058 1.21497 21.8079C1.27204 21.5286 1.24677 21.4103 1.10174 21.278C0.871401 21.068 0.838118 20.3634 1.05691 20.3302C1.15744 20.315 1.13754 20.2808 0.988284 20.2129C0.748333 20.1037 0.79351 19.8203 1.09282 19.5569C1.28771 19.3855 1.24596 18.6514 1.03598 18.5559C0.882261 18.4859 0.876431 17.7059 1.02935 17.6629C1.22469 17.6081 1.16579 17.1097 0.95123 17.0019C0.783902 16.9178 0.567627 16.5189 0.561909 16.2838C0.560879 16.2409 0.637396 16.0543 0.731979 15.869C0.826567 15.6838 0.86774 15.5199 0.823475 15.5047C0.580663 15.4216 0.43587 15.1864 0.512843 15.0006C0.658096 14.6501 0.712306 12.7361 0.578721 12.6753C0.419973 12.6031 0.421917 12.1055 0.581122 12.033C0.660382 11.997 0.7051 11.643 0.705901 11.0469C0.706475 10.5354 0.747533 10.0935 0.797054 10.0649C0.979478 9.95934 1.00579 9.39339 0.835373 9.2409C0.744672 9.15983 0.65718 8.92602 0.640941 8.72137C0.624581 8.51675 0.632593 8.37832 0.658554 8.41377C0.684516 8.44925 0.752795 8.46502 0.810322 8.44883C0.960495 8.40662 0.939789 8.11332 0.786646 8.11332C0.659355 8.11332 0.687945 7.68746 0.870026 6.8735C0.918631 6.65653 0.899765 6.52435 0.81501 6.48578C0.655578 6.41322 0.644144 5.94558 0.800599 5.90155C0.863505 5.88385 0.914976 5.81693 0.914976 5.75278C0.914976 5.6886 0.974105 5.60925 1.04639 5.57636C1.14532 5.53133 1.13114 5.48424 0.989201 5.38566C0.885464 5.31365 0.800599 5.17387 0.800599 5.07508C0.800599 4.97627 0.736324 4.88352 0.657638 4.86899C0.546468 4.84849 0.549213 4.83164 0.669873 4.79312C0.761485 4.76392 0.795685 4.70143 0.753253 4.64068C0.673192 4.52583 1.2741 3.4069 1.54299 3.17031C1.63792 3.0868 1.71558 2.98213 1.71558 2.93778C1.71558 2.89339 1.76704 2.85712 1.82995 2.85712C1.89285 2.85712 1.94432 2.8103 1.94432 2.75305C1.94432 2.69579 1.98973 2.64896 2.04531 2.64896C2.10078 2.64896 2.28823 2.51693 2.46174 2.35555C2.81492 2.02706 3.57503 1.66017 3.90248 1.66017C4.02062 1.66017 4.11738 1.63675 4.11738 1.60813C4.11738 1.57951 4.22031 1.55609 4.34613 1.55609C4.47193 1.55609 4.57487 1.53267 4.57487 1.50404C4.57487 1.47542 4.65539 1.452 4.75375 1.452C4.85211 1.452 5.21398 1.39346 5.55778 1.3219C5.9016 1.25034 6.25544 1.1918 6.34432 1.1918C6.43308 1.1918 6.53751 1.16838 6.57638 1.13975C6.61525 1.11113 6.76969 1.08771 6.91948 1.08771C7.06933 1.08771 7.21745 1.06893 7.24866 1.04597C7.27976 1.02303 7.56914 0.971555 7.89164 0.931586C8.21415 0.89162 8.50353 0.84015 8.53463 0.817201C8.5659 0.794249 8.74267 0.775462 8.92774 0.775462C9.11281 0.775462 9.26411 0.752043 9.26411 0.723422C9.26411 0.690375 10.1387 0.67138 11.6592 0.67138C13.1325 0.67138 14.0815 0.691415 14.1249 0.723422C14.234 0.803774 16.5818 0.791387 16.5929 0.71041C16.6001 0.65837 16.6135 0.65837 16.6596 0.71041C16.7282 0.787797 17.5683 0.79857 17.6704 0.723422C17.7093 0.694799 17.8281 0.673045 17.9345 0.675023C18.0922 0.678041 18.0856 0.686941 17.8992 0.723422C17.727 0.757092 17.8049 0.769063 18.2137 0.771819C18.5126 0.773798 18.757 0.752043 18.757 0.723422C18.757 0.694799 18.8341 0.67138 18.9285 0.67138C19.0229 0.67138 19.1001 0.694799 19.1001 0.723422C19.1001 0.754958 19.5935 0.775462 20.3514 0.775462C21.0622 0.775462 21.6333 0.797945 21.6735 0.827504C21.7683 0.897344 25.4673 0.897344 25.562 0.827504C25.6593 0.755947 26.0477 0.761827 26.1018 0.835727C26.1567 0.910615 26.915 0.906192 26.9703 0.830628C27.0217 0.760579 27.4492 0.75777 27.4492 0.827504C27.4492 0.856128 27.5419 0.879547 27.6551 0.879547C27.7683 0.879547 27.9098 0.900104 27.9696 0.92529C28.2439 1.04067 28.8807 1.03473 29.4135 0.91176C29.7194 0.841192 29.9909 0.807884 30.0482 0.833957C30.1033 0.859043 30.9648 0.885427 31.9625 0.892557C33.3328 0.902393 33.7886 0.889642 33.825 0.840514C33.8796 0.766565 34.3115 0.750534 34.3115 0.822456C34.3115 0.923989 38.3875 1.03151 38.8246 0.941528C38.953 0.915089 39.2026 0.862163 39.3795 0.823964C39.6329 0.769218 39.7478 0.767709 39.9212 0.816993C40.0423 0.851393 40.2419 0.879547 40.3649 0.879547C40.4878 0.879547 40.6203 0.902966 40.6591 0.931586C40.698 0.96021 40.894 0.983265 41.0948 0.982848C41.3112 0.982381 41.403 0.965623 41.3206 0.941787C41.2404 0.918629 41.3853 0.897814 41.6619 0.892818C41.9264 0.88803 42.1605 0.859665 42.1824 0.829794C42.2043 0.799923 42.3209 0.775462 42.4414 0.775462C42.5619 0.775462 42.6607 0.752043 42.6607 0.723422C42.6607 0.694799 42.918 0.67138 43.2325 0.67138C43.547 0.67138 43.8044 0.694799 43.8044 0.723422C43.8044 0.752043 43.93 0.775462 44.0835 0.775462C44.2372 0.775462 44.3945 0.798881 44.4334 0.827504C44.5256 0.895366 46.0568 0.895366 46.149 0.827504C46.2414 0.759487 47.5786 0.759487 47.5786 0.827504C47.5786 0.856128 47.6816 0.879547 47.8074 0.879547C47.9332 0.879547 48.0361 0.856128 48.0361 0.827504C48.0361 0.798881 48.1133 0.775462 48.2077 0.775462C48.3021 0.775462 48.3792 0.798881 48.3792 0.827504C48.3792 0.858365 48.7986 0.879547 49.4086 0.879547C50.0185 0.879547 50.4379 0.858365 50.4379 0.827504C50.4379 0.75959 51.4323 0.75959 51.5245 0.827504C51.6194 0.897397 54.6697 0.897397 54.6697 0.827504C54.6697 0.798881 54.8241 0.775462 55.0128 0.775462C55.2015 0.775462 55.3559 0.798881 55.3559 0.827504C55.3559 0.860499 56.2137 0.879547 57.7005 0.879547C59.1872 0.879547 60.0452 0.860499 60.0452 0.827504C60.0452 0.798881 60.3022 0.775462 60.6173 0.775462C60.9317 0.775462 61.1887 0.798881 61.1887 0.827504C61.1887 0.85722 61.531 0.879547 61.9858 0.879547C62.5712 0.879547 62.8915 0.85186 63.1902 0.775462C63.4786 0.701773 63.8098 0.67138 64.3244 0.67138C64.9545 0.67138 65.0589 0.657589 65.1105 0.567298C65.1506 0.497769 65.2666 0.463213 65.4604 0.463213C65.6199 0.463213 65.7818 0.439794 65.8206 0.411171C65.9129 0.343415 66.9867 0.343415 67.079 0.411171C67.1179 0.439794 67.2722 0.463213 67.4219 0.463213C67.5721 0.463213 67.7264 0.486632 67.7653 0.515256C67.8848 0.603154 68.3472 0.573022 68.5659 0.463213C68.7237 0.383851 68.9181 0.359131 69.3839 0.359131C69.7204 0.359131 69.9954 0.38255 69.9954 0.411171C69.9954 0.439794 70.2791 0.463213 70.626 0.463213C70.973 0.463213 71.3657 0.492462 71.4986 0.528266C71.6924 0.580308 71.7515 0.580308 71.7927 0.528266C71.8264 0.486216 72.084 0.463213 72.5214 0.463213C72.8962 0.463213 73.1979 0.440003 73.1979 0.411171C73.1979 0.38255 73.3267 0.359131 73.4839 0.359131C73.6411 0.359131 73.7699 0.38255 73.7699 0.411171C73.7699 0.439794 74.0014 0.463213 74.2845 0.463213C74.5676 0.463213 74.7991 0.486632 74.7991 0.515256C74.7991 0.543879 74.976 0.567298 75.1924 0.567298C75.4094 0.567298 75.6183 0.590714 75.6571 0.619338C75.696 0.647961 75.8532 0.67138 76.007 0.67138C76.1601 0.67138 76.286 0.694799 76.286 0.723422C76.286 0.753658 76.6596 0.775462 77.1795 0.775462C77.9145 0.775462 78.1164 0.757039 78.3183 0.67138C78.4535 0.614133 78.6432 0.567298 78.7401 0.567298C78.837 0.567298 78.9164 0.543879 78.9164 0.515256C78.9164 0.486632 79.0713 0.463213 79.261 0.463213C79.5923 0.463213 79.6933 0.478149 80.2589 0.611221C80.5722 0.684962 81.6611 0.691259 81.6611 0.619338C81.6611 0.590714 81.816 0.567298 82.0046 0.567298C82.1931 0.567298 82.3475 0.543879 82.3475 0.515256C82.3475 0.486632 82.4403 0.463213 82.5534 0.463213C82.6665 0.463213 82.8209 0.435112 82.8969 0.400765C83.0036 0.35221 83.0338 0.35221 83.0338 0.400765C83.0338 0.435162 83.1846 0.463213 83.3703 0.463213C83.5553 0.463213 83.7387 0.486632 83.7775 0.515256C83.8164 0.543879 83.9736 0.567298 84.1274 0.567298C84.2805 0.567298 84.4064 0.590714 84.4064 0.619338C84.4064 0.649939 84.8067 0.67138 85.3788 0.67138C85.9502 0.67138 86.3505 0.649939 86.3505 0.619338C86.3505 0.590714 86.4178 0.567298 86.4996 0.567298C86.7096 0.567298 87.2637 0.444896 87.2648 0.398161C87.2654 0.376668 87.3223 0.359131 87.3913 0.359131C87.5288 0.359131 88.3172 0.199987 88.4095 0.15367C88.4408 0.13785 88.5696 0.0970492 88.6955 0.062962C88.974 -0.0126545 89.2617 -0.0203046 89.5263 0.0407924Z" fill="#ACD4F1"/>
</svg>
