<svg width="151" height="19" viewBox="0 0 151 19" fill="none" xmlns="http://www.w3.org/2000/svg">
<path d="M30.3738 4.27955C28.9616 1.63489 26.233 0 23.265 0H0.765927C0.335093 0 0 0.360637 0 0.7934C0 0.98574 0.0718056 1.20212 0.215417 1.34638L5.12213 6.29912C5.55297 6.73188 6.15135 6.97231 6.74973 6.97231H22.6188C23.7437 6.97231 24.6772 7.86188 24.6772 9.01591C24.6772 10.1459 23.7916 11.0836 22.6427 11.0836H11.7283C11.2974 11.0836 10.9623 11.4442 10.9623 11.877C10.9623 12.0933 11.0341 12.2857 11.1777 12.4299L16.0845 17.3827C16.5153 17.7914 17.1137 18.0318 17.7121 18.0318H22.6666C29.1052 18.0318 33.9641 11.1316 30.3738 4.27955Z" fill="#121313"/>
<path d="M42.3164 5.62591V13.2233H44.2552C46.3136 13.1993 47.9651 11.4923 47.9412 9.42461C47.9891 7.38101 46.4093 5.69803 44.3748 5.62591C44.327 5.62591 44.303 5.62591 44.2552 5.62591H42.3164ZM44.2552 3.24571C47.8694 3.24571 50.598 5.98654 50.598 9.42461C50.598 12.8627 47.8694 15.6035 44.2552 15.6035H39.9947C39.8272 15.6035 39.6835 15.4593 39.6835 15.291V3.55826C39.6835 3.38996 39.8272 3.24571 39.9947 3.24571H44.2552Z" fill="#121313"/>
<path d="M59.9084 13.4878C62.1344 13.4878 63.9534 11.6846 63.9774 9.4246C64.0013 7.16461 62.1822 5.36143 59.9323 5.33739C57.7064 5.33739 55.8873 7.14057 55.8633 9.40056C55.8633 11.6605 57.6585 13.4878 59.9084 13.4878ZM59.9084 2.95718C63.7141 2.95718 66.6102 5.89036 66.6102 9.4246C66.6102 12.9588 63.6902 15.868 59.9084 15.868C56.1266 15.868 53.2305 12.9588 53.2305 9.40056C53.2305 5.84228 56.1266 2.95718 59.9084 2.95718Z" fill="#121313"/>
<path d="M75.8249 13.4878C78.0509 13.4878 79.87 11.6605 79.87 9.40056C79.87 7.14057 78.0509 5.33739 75.801 5.33739C73.575 5.33739 71.7559 7.16461 71.7559 9.40056C71.7799 11.6605 73.575 13.4878 75.8249 13.4878ZM75.8249 2.95718C79.6067 2.95718 82.5028 5.86632 82.5028 9.4246C82.5028 12.9829 79.6067 15.868 75.8249 15.868C72.0431 15.868 69.123 12.9588 69.123 9.40056C69.123 5.84228 72.0192 2.95718 75.8249 2.95718Z" fill="#121313"/>
<path d="M91.3837 5.62591H88.6551V8.89568H91.3837C92.2693 8.94376 93.0113 8.24653 93.0592 7.35696C93.0592 7.33292 93.0592 7.30888 93.0592 7.28483C93.0831 6.39526 92.389 5.62591 91.5034 5.60186C91.4555 5.62591 91.4076 5.62591 91.3837 5.62591ZM85.9983 3.55826C85.9983 3.38996 86.1419 3.24571 86.3094 3.24571H91.4555C93.8969 3.24571 95.6681 5.04889 95.6681 7.30888C95.692 8.84759 94.8304 10.2421 93.4661 10.9393L95.8356 15.1467C95.9314 15.291 95.8835 15.4833 95.7638 15.5795C95.716 15.6276 95.6442 15.6276 95.5723 15.6276H93.49C93.3703 15.6276 93.2746 15.5554 93.2028 15.4593L90.9289 11.2999H88.6311V15.291C88.6311 15.4593 88.4875 15.6035 88.32 15.6035H86.3094C86.1419 15.6035 85.9983 15.4593 85.9983 15.291V3.55826Z" fill="#121313"/>
<path d="M102.561 5.67398V13.2714H104.499C106.558 13.2473 108.209 11.5403 108.185 9.47268C108.257 7.42908 106.654 5.72206 104.619 5.67398C104.571 5.67398 104.523 5.67398 104.475 5.67398H102.561ZM104.499 3.29378C108.114 3.29378 110.842 6.03462 110.842 9.47268C110.842 12.9108 108.114 15.6516 104.499 15.6516H100.239C100.071 15.6516 99.9277 15.5073 99.9277 15.339V3.60633C99.9277 3.43803 100.071 3.29378 100.239 3.29378H104.499Z" fill="#121313"/>
<path d="M118.885 6.32311L117.377 10.3863H120.369L118.885 6.32311ZM116.516 12.6703L115.534 15.3871C115.486 15.5073 115.367 15.6035 115.223 15.6035H113.093C112.925 15.6275 112.782 15.5073 112.758 15.315C112.758 15.2669 112.758 15.1948 112.782 15.1467L117.377 3.41398C117.425 3.29377 117.545 3.1976 117.688 3.22164H120.058C120.202 3.22164 120.321 3.29377 120.369 3.41398L124.965 15.1467C125.037 15.2909 124.965 15.4833 124.821 15.5554C124.773 15.5795 124.725 15.5795 124.654 15.5795H122.523C122.38 15.5795 122.26 15.5073 122.212 15.3631L121.231 12.6463H116.516V12.6703Z" fill="#121313"/>
<path d="M127.429 6.58759C127.429 4.64015 129.105 2.95718 131.738 2.95718C133.15 2.93314 134.538 3.43803 135.567 4.39973C135.687 4.51994 135.711 4.71228 135.591 4.83249C135.591 4.83249 135.591 4.83249 135.567 4.85653L134.395 6.03461C134.275 6.15482 134.083 6.15482 133.964 6.03461C133.413 5.52972 132.671 5.24121 131.929 5.21717C130.876 5.21717 130.086 5.84227 130.086 6.5395C130.086 8.84758 136.333 7.5012 136.333 11.925C136.333 14.161 134.634 15.868 131.666 15.868C130.014 15.892 128.411 15.2429 127.214 14.0648C127.094 13.9446 127.07 13.7522 127.19 13.632C127.19 13.632 127.19 13.632 127.214 13.608L128.363 12.4539C128.482 12.3337 128.674 12.3337 128.794 12.4539C129.512 13.1512 130.493 13.5359 131.474 13.5599C132.791 13.5599 133.653 12.8627 133.653 11.9731C133.676 9.68906 127.429 11.0114 127.429 6.58759Z" fill="#121313"/>
<path d="M147.655 3.5342V8.17439H142.365V3.5342C142.365 3.3659 142.222 3.22165 142.054 3.22165H140.044C139.876 3.22165 139.732 3.3659 139.732 3.5342V15.2669C139.732 15.4352 139.876 15.5795 140.044 15.5795H142.054C142.222 15.5795 142.365 15.4352 142.365 15.2669V10.5546H147.655V15.2669C147.655 15.4352 147.799 15.5795 147.966 15.5795H149.977C150.144 15.5795 150.288 15.4352 150.288 15.2669V3.5342C150.288 3.3659 150.144 3.22165 149.977 3.22165H147.966C147.775 3.22165 147.655 3.3659 147.655 3.5342Z" fill="#121313"/>
</svg>
