<svg width="193" height="32" viewBox="0 0 193 32" fill="none" xmlns="http://www.w3.org/2000/svg">
<path fill-rule="evenodd" clip-rule="evenodd" d="M113.675 0.0407924C114.281 0.151381 114.691 0.198634 115.234 0.220752C115.553 0.233762 116.076 0.269671 116.395 0.300531C116.715 0.331392 117.516 0.357206 118.174 0.357881C118.874 0.358609 119.373 0.38078 119.373 0.411171C119.373 0.439794 119.569 0.463213 119.808 0.463213C120.047 0.463213 120.244 0.486632 120.244 0.515256C120.244 0.543879 120.473 0.567298 120.752 0.567298C121.032 0.567298 121.26 0.543879 121.26 0.515256C121.26 0.486632 121.411 0.463213 121.594 0.463213C121.778 0.463213 122.007 0.435112 122.103 0.400765C122.238 0.35221 122.277 0.35221 122.277 0.400765C122.277 0.435112 122.44 0.463213 122.64 0.463213C122.839 0.463213 123.003 0.439794 123.003 0.411171C123.003 0.38255 123.228 0.359131 123.503 0.359131C123.778 0.359131 124.043 0.38255 124.092 0.411171C124.142 0.4399 124.796 0.463213 125.553 0.463213C126.37 0.463213 126.924 0.484237 126.924 0.515256C126.924 0.543879 127.049 0.567298 127.202 0.567298C127.356 0.567298 127.51 0.596597 127.546 0.632348C127.599 0.68439 127.674 0.68439 127.92 0.632348C128.288 0.554391 129.049 0.546533 129.175 0.619338C129.225 0.647961 129.392 0.67138 129.546 0.67138C129.702 0.67138 129.829 0.691103 129.829 0.71525C129.829 0.739347 130.117 0.812152 130.468 0.876996C130.974 0.970202 131.247 0.988261 131.775 0.96323C132.142 0.945847 132.753 0.917587 133.132 0.900518C133.512 0.883448 133.885 0.848322 133.96 0.822456C134.036 0.796591 134.379 0.775462 134.722 0.775462C135.066 0.775462 135.347 0.752043 135.347 0.723422C135.347 0.693498 135.796 0.67138 136.404 0.67138C137.294 0.67138 137.494 0.654986 137.67 0.567298C137.854 0.476173 138.047 0.463213 139.219 0.463213C139.955 0.463213 140.598 0.486632 140.648 0.515256C140.763 0.582648 142.796 0.583273 142.984 0.515984C143.185 0.443907 149.574 0.440628 149.774 0.512444C149.859 0.542629 150.143 0.567298 150.407 0.567298C150.67 0.567298 150.885 0.590714 150.885 0.619338C150.885 0.647961 151.081 0.67138 151.322 0.67138C151.561 0.67138 151.757 0.694799 151.757 0.723422C151.757 0.753502 152.217 0.775462 152.846 0.775462C153.476 0.775462 153.935 0.753502 153.935 0.723422C153.935 0.693134 154.415 0.67138 155.085 0.67138C155.873 0.67138 156.256 0.650929 156.301 0.606328C156.353 0.554285 156.427 0.554285 156.673 0.606328C156.897 0.653582 157.952 0.67138 160.533 0.67138C162.743 0.67138 164.118 0.691 164.174 0.723422C164.292 0.791856 166.424 0.791856 166.424 0.723422C166.424 0.694799 166.62 0.67138 166.86 0.67138C167.1 0.67138 167.296 0.647961 167.296 0.619338C167.296 0.590714 167.557 0.567298 167.877 0.567298C168.196 0.567298 168.457 0.543879 168.457 0.515256C168.457 0.484395 168.99 0.463213 169.764 0.463213C170.539 0.463213 171.072 0.484395 171.072 0.515256C171.072 0.58317 172.334 0.58317 172.451 0.515256C172.569 0.446508 175.138 0.446508 175.138 0.515256C175.138 0.58369 177.271 0.58369 177.388 0.515256C177.438 0.486216 178.116 0.463213 178.921 0.463213C180.206 0.463213 180.383 0.474559 180.545 0.567298C180.694 0.653218 180.883 0.67138 181.626 0.67138C182.122 0.67138 182.567 0.694799 182.616 0.723422C182.666 0.752043 183.156 0.775462 183.706 0.775462C184.255 0.775462 184.746 0.798881 184.795 0.827504C184.845 0.856128 185.041 0.879547 185.231 0.879547C185.421 0.879547 185.617 0.902966 185.666 0.931586C185.715 0.96021 186.095 0.983784 186.51 0.983943C187.301 0.984201 188.177 1.04998 188.789 1.15495C189.251 1.23431 190.677 1.71143 190.677 1.78679C190.677 1.81812 190.938 1.88437 191.257 1.93396C191.914 2.03596 192 2.15092 191.547 2.32495C191.257 2.43647 191.257 2.43757 191.542 2.61914C191.77 2.76474 191.844 2.9405 191.911 3.49282C191.958 3.87309 192.031 4.47473 192.074 4.82987C192.129 5.28168 192.101 5.51057 191.979 5.59221C191.868 5.66665 191.842 5.79081 191.907 5.93534C191.964 6.05988 192.04 6.4369 192.078 6.77326C192.115 7.10956 192.207 7.38474 192.283 7.38474C192.358 7.38474 192.419 7.53697 192.419 7.72302C192.419 7.90907 192.471 8.06127 192.535 8.06127C192.705 8.06127 193 8.38148 193 8.56537C193 8.65247 192.886 8.77983 192.746 8.84825C192.606 8.91673 192.41 9.02494 192.311 9.0888C192.093 9.22736 192.062 9.98683 192.274 9.98683C192.354 9.98683 192.419 10.0668 192.419 10.1646C192.419 10.2624 192.501 10.3523 192.601 10.3643C192.743 10.3815 192.741 10.4043 192.588 10.4705C192.473 10.5202 192.443 10.5823 192.515 10.622C192.742 10.7495 192.996 11.0539 192.998 11.2023C192.999 11.2839 192.804 11.4549 192.565 11.5822C192.324 11.7094 192.129 11.838 192.129 11.8679C192.129 11.8978 192.009 11.9845 191.863 12.0605C191.408 12.298 191.218 12.525 191.323 12.7053C191.447 12.9152 191.446 13.0779 191.322 13.3312C191.259 13.4573 191.289 13.5546 191.404 13.6043C191.643 13.7076 191.665 14.2033 191.439 14.3761C191.339 14.4522 191.181 14.5728 191.088 14.6441C190.96 14.7427 190.96 14.8056 191.088 14.9068C191.181 14.9799 191.257 15.1426 191.257 15.2684C191.257 15.3942 191.323 15.5116 191.402 15.5292C191.583 15.5691 191.594 15.799 191.419 15.8378C191.132 15.9015 191.108 16.2779 191.348 16.9887C191.561 17.6187 191.57 17.759 191.408 17.8672C191.253 17.9716 191.25 18.0258 191.398 18.1531C191.535 18.272 191.54 18.3506 191.418 18.4757C191.217 18.6833 191.203 19.9086 191.402 19.9528C191.577 19.9914 191.6 20.4472 191.427 20.4472C191.361 20.4472 191.214 20.5088 191.102 20.5841C190.884 20.7302 190.902 20.9529 191.141 21.0572C191.334 21.1418 191.319 21.9031 191.122 21.9737C191.037 22.0042 190.967 22.0934 190.967 22.1719C190.967 22.2504 190.901 22.329 190.822 22.3467C190.614 22.3926 190.632 23.5851 190.842 23.66C191.295 23.8227 191.254 25.0826 190.737 26.8563C190.683 27.0396 190.715 27.1934 190.821 27.2641C190.932 27.338 190.985 27.6519 190.975 28.1599C190.962 28.7949 190.904 29.0004 190.667 29.2525C190.506 29.4235 190.311 29.5905 190.232 29.624C189.41 29.974 189.37 30.003 189.37 30.2404C189.37 30.4528 189.312 30.4987 188.926 30.5973C188.682 30.6596 188.322 30.8018 188.125 30.9131C187.849 31.0695 187.676 31.1157 187.363 31.1157C187.141 31.1157 186.884 31.1426 186.792 31.1753C186.668 31.2199 186.521 31.2191 186.201 31.1716C185.785 31.1099 185.539 31.1109 181.542 31.1874C180.782 31.2019 180.132 31.2391 180.076 31.271C180.015 31.3064 179.119 31.3404 177.725 31.3599C175.803 31.3868 175.402 31.3789 174.992 31.3056C174.728 31.2584 174.359 31.2199 174.171 31.2199C173.984 31.2199 173.83 31.1906 173.828 31.1547C173.827 31.1093 173.794 31.1072 173.72 31.1471C173.661 31.179 173.319 31.2196 172.96 31.2378C172.062 31.2834 170.264 31.4085 169.474 31.48C168.765 31.5443 167.996 31.5311 166.653 31.4312C166.18 31.3961 165.624 31.3834 165.419 31.4032C165.213 31.423 164.457 31.457 163.738 31.4789C163.019 31.5008 162.169 31.5456 161.85 31.5786C161.531 31.6116 160.419 31.6517 159.381 31.6678C157.828 31.6918 157.364 31.6812 156.767 31.6082C156.052 31.5206 153.398 31.4232 152.265 31.443C150.327 31.4765 147.111 31.4267 147.11 31.3628C147.11 31.3415 146.992 31.3238 146.849 31.3238C146.705 31.3238 146.522 31.3006 146.443 31.2721C146.223 31.1935 143.611 31.1953 143.476 31.2739C143.22 31.4222 139.193 31.4185 138.178 31.2692C137.84 31.2191 136.869 31.1626 136.399 31.1655C135.844 31.1692 135.467 31.1645 134.058 31.1357C133.18 31.1178 132.641 31.1278 132.54 31.1639C132.455 31.1945 132.247 31.2199 132.079 31.2199C131.912 31.2199 131.709 31.2431 131.63 31.2716C131.404 31.3525 128.236 31.3586 128.097 31.2787C127.948 31.1919 125.499 31.1719 125.022 31.2536C124.437 31.3536 120.68 31.4385 120.129 31.3642C119.873 31.3293 119.663 31.2826 119.663 31.2605C119.663 31.2024 117.531 31.2098 117.228 31.2689C116.715 31.3692 114.738 31.4509 112.692 31.4565C110.615 31.4623 109.057 31.5045 105.068 31.663C102.579 31.7619 102.281 31.7627 101.888 31.6701C101.715 31.6298 100.807 31.5702 99.851 31.5369C98.9029 31.5037 98.0735 31.4647 98.0079 31.4501C97.9431 31.4359 97.2831 31.4631 96.5413 31.5106C95.1041 31.6029 91.0039 31.6227 90.7048 31.5388C90.6179 31.5142 89.4673 31.4802 88.1494 31.4633C85.6242 31.4306 83.0666 31.3285 83.0666 31.2602C83.0666 31.2381 82.3808 31.2199 81.5425 31.2199C80.5274 31.2199 80.0177 31.2006 80.0177 31.1624C80.0177 31.0985 78.2475 31.127 76.7499 31.2151C75.1529 31.3088 73.4182 31.4256 73.2231 31.4525C73.1171 31.467 72.7973 31.4441 72.5125 31.4013C71.8249 31.2985 71.7094 31.3019 70.7821 31.4538C70.3456 31.5256 69.8018 31.5841 69.5739 31.5841C69.1087 31.5841 53.3809 31.5353 53.0382 31.7923C52.6954 32.0492 48.25 31.7923 48.25 31.7923C45.6718 31.9962 44.1099 32.0099 44.17 31.9962C44.2429 31.9796 44.2606 31.9271 44.2095 31.8791C44.129 31.8039 43.8556 31.7923 42.1909 31.7923C40.6629 31.7923 39.9335 31.7654 38.6572 31.6622C37.7727 31.5905 36.7059 31.5319 36.2866 31.5319C35.8674 31.5319 35.151 31.5045 34.6948 31.4707C33.9735 31.4172 33.8168 31.4206 33.4932 31.4966C33.0906 31.5913 31.7354 31.6163 31.3808 31.5359C31.2684 31.5106 31.0723 31.509 30.9452 31.5324C30.6975 31.5786 29.5395 31.7002 28.438 31.7957C27.8537 31.8464 27.6975 31.8416 27.3202 31.7619C26.8907 31.6709 26.8665 31.6717 26.184 31.7957C25.8003 31.8653 25.4647 31.94 25.4381 31.9614C25.3681 32.0178 24.0035 32.0094 23.7055 31.9508C23.2667 31.8646 21.1838 31.7271 19.6776 31.6849C18.1237 31.6417 17.467 31.5976 17.348 31.5285C17.3072 31.505 17.018 31.5179 16.7052 31.5575C15.9344 31.6548 14.7554 31.6641 12.8781 31.5868C12.014 31.5512 11.2727 31.5343 11.2312 31.5491C11.1897 31.5641 10.8511 31.5427 10.4791 31.5021C10.0738 31.4575 9.55939 31.4404 9.19601 31.4591C8.71564 31.4842 8.44368 31.4633 7.88906 31.3594C7.11428 31.2143 6.67019 31.1703 5.59105 31.132C5.19169 31.1178 4.80293 31.0848 4.72698 31.0589C4.65117 31.0328 4.47138 31.0117 4.32761 31.0117C4.18384 31.0117 4.06622 30.9883 4.06622 30.9595C4.06622 30.931 3.97531 30.9075 3.86407 30.9075C3.59729 30.9075 2.17833 30.4485 2.17833 30.3623C2.17833 30.2745 1.54429 30.127 1.16686 30.127C0.746004 30.127 0.757186 29.8492 1.18225 29.7424C1.48852 29.6656 1.48925 29.6614 1.23337 29.4683C1.08103 29.3533 0.950481 29.1098 0.917656 28.8798C0.886872 28.664 0.830813 28.3704 0.793061 28.2275C0.602235 27.5047 0.565204 26.4319 0.731193 26.4319C0.841708 26.4319 0.870459 26.3857 0.811646 26.3019C0.761547 26.2303 0.778099 26.1717 0.84839 26.1717C1.0061 26.1717 0.885273 25.9207 0.708828 25.8817C0.638395 25.8661 0.580888 25.6307 0.580888 25.3586C0.580888 25.0865 0.514377 24.8193 0.433197 24.765C0.351873 24.7106 0.269096 24.5263 0.249055 24.3555C0.22916 24.1846 0.164826 24.0277 0.106302 24.0068C0.047923 23.9858 0 23.7991 0 23.5919C0 23.3134 0.080453 23.1562 0.308597 22.9891C0.478362 22.8648 0.664246 22.7279 0.721609 22.685C0.778969 22.642 0.901538 22.5542 0.993899 22.4898C1.08626 22.4254 1.22654 22.3266 1.30554 22.2701C1.38469 22.2137 1.49143 22.0058 1.5427 21.8079C1.61516 21.5286 1.58306 21.4103 1.39893 21.278C1.10645 21.068 1.06419 20.3634 1.342 20.3302C1.46964 20.315 1.44438 20.2808 1.25486 20.2129C0.950186 20.1037 1.00755 19.8203 1.3876 19.5569C1.63506 19.3855 1.58205 18.6514 1.31542 18.5559C1.12024 18.4859 1.11284 17.7059 1.307 17.6629C1.55503 17.6081 1.48025 17.1097 1.20781 17.0019C0.99535 16.9178 0.720737 16.5189 0.713476 16.2838C0.712169 16.2409 0.809326 16.0543 0.92942 15.869C1.04952 15.6838 1.1018 15.5199 1.0456 15.5047C0.737289 15.4216 0.553441 15.1864 0.651175 15.0006C0.835609 14.6501 0.904441 12.7361 0.734823 12.6753C0.533255 12.6031 0.535724 12.1055 0.737871 12.033C0.838511 11.997 0.895292 11.643 0.896308 11.0469C0.897038 10.5354 0.94917 10.0935 1.01205 10.0649C1.24368 9.95934 1.27709 9.39339 1.0607 9.2409C0.945538 9.15983 0.834445 8.92602 0.813826 8.72137C0.793053 8.51675 0.803226 8.37832 0.836191 8.41377C0.869156 8.44925 0.955851 8.46502 1.0289 8.44883C1.21958 8.40662 1.19329 8.11332 0.998834 8.11332C0.837207 8.11332 0.873509 7.68746 1.1047 6.8735C1.16642 6.65653 1.14246 6.52435 1.03485 6.48578C0.832412 6.41322 0.817893 5.94558 1.01655 5.90155C1.09642 5.88385 1.16178 5.81693 1.16178 5.75278C1.16178 5.6886 1.23686 5.60925 1.32864 5.57636C1.45425 5.53133 1.43624 5.48424 1.25602 5.38566C1.12431 5.31365 1.01655 5.17387 1.01655 5.07508C1.01655 4.97627 0.934938 4.88352 0.835027 4.86899C0.69387 4.84849 0.697356 4.83164 0.850563 4.79312C0.966886 4.76392 1.01031 4.70143 0.956433 4.64068C0.854776 4.52583 1.61777 3.4069 1.95919 3.17031C2.07972 3.0868 2.17833 2.98213 2.17833 2.93778C2.17833 2.89339 2.24368 2.85712 2.32355 2.85712C2.40342 2.85712 2.46877 2.8103 2.46877 2.75305C2.46877 2.69579 2.52643 2.64896 2.59701 2.64896C2.66744 2.64896 2.90545 2.51693 3.12576 2.35555C3.57421 2.02706 4.53935 1.66017 4.95512 1.66017C5.10513 1.66017 5.22799 1.63675 5.22799 1.60813C5.22799 1.57951 5.35869 1.55609 5.51844 1.55609C5.67818 1.55609 5.80888 1.53267 5.80888 1.50404C5.80888 1.47542 5.91112 1.452 6.03601 1.452C6.1609 1.452 6.62038 1.39346 7.05692 1.3219C7.49348 1.25034 7.94276 1.1918 8.05561 1.1918C8.16832 1.1918 8.30092 1.16838 8.35027 1.13975C8.39962 1.11113 8.59572 1.08771 8.78592 1.08771C8.97619 1.08771 9.16426 1.06893 9.20389 1.04597C9.24337 1.02303 9.61081 0.971555 10.0203 0.931586C10.4298 0.89162 10.7972 0.84015 10.8367 0.817201C10.8764 0.794249 11.1009 0.775462 11.3359 0.775462C11.5709 0.775462 11.763 0.752043 11.763 0.723422C11.763 0.690375 12.8735 0.67138 14.8041 0.67138C16.6748 0.67138 17.8798 0.691415 17.9349 0.723422C18.0735 0.803774 21.0545 0.791387 21.0687 0.71041C21.0778 0.65837 21.0948 0.65837 21.1533 0.71041C21.2405 0.787797 22.3071 0.79857 22.4368 0.723422C22.4862 0.694799 22.6371 0.673045 22.7721 0.675023C22.9724 0.678041 22.964 0.686941 22.7272 0.723422C22.5087 0.757092 22.6076 0.769063 23.1266 0.771819C23.5061 0.773798 23.8164 0.752043 23.8164 0.723422C23.8164 0.694799 23.9144 0.67138 24.0342 0.67138C24.154 0.67138 24.2521 0.694799 24.2521 0.723422C24.2521 0.754958 24.8786 0.775462 25.8409 0.775462C26.7435 0.775462 27.4686 0.797945 27.5196 0.827504C27.64 0.897344 32.3367 0.897344 32.4571 0.827504C32.5805 0.755947 33.0737 0.761827 33.1424 0.835727C33.2121 0.910615 34.1749 0.906192 34.2452 0.830628C34.3105 0.760579 34.8533 0.75777 34.8533 0.827504C34.8533 0.856128 34.9709 0.879547 35.1147 0.879547C35.2584 0.879547 35.4381 0.900104 35.5141 0.92529C35.8623 1.04067 36.6709 1.03473 37.3473 0.91176C37.7358 0.841192 38.0805 0.807884 38.1533 0.833957C38.2233 0.859043 39.3171 0.885427 40.584 0.892557C42.3239 0.902393 42.9026 0.889642 42.9488 0.840514C43.0182 0.766565 43.5666 0.750534 43.5666 0.822456C43.5666 0.923989 48.742 1.03151 49.2971 0.941528C49.46 0.915089 49.777 0.862163 50.0017 0.823964C50.3233 0.769218 50.4693 0.767709 50.6895 0.816993C50.8432 0.851393 51.0966 0.879547 51.2528 0.879547C51.4089 0.879547 51.577 0.902966 51.6264 0.931586C51.6758 0.96021 51.9247 0.983265 52.1795 0.982848C52.4543 0.982381 52.5709 0.965623 52.4662 0.941787C52.3644 0.918629 52.5484 0.897814 52.8997 0.892818C53.2354 0.88803 53.5327 0.859665 53.5606 0.829794C53.5884 0.799923 53.7364 0.775462 53.8894 0.775462C54.0424 0.775462 54.1678 0.752043 54.1678 0.723422C54.1678 0.694799 54.4946 0.67138 54.8939 0.67138C55.2933 0.67138 55.62 0.694799 55.62 0.723422C55.62 0.752043 55.7795 0.775462 55.9745 0.775462C56.1696 0.775462 56.3693 0.798881 56.4188 0.827504C56.5358 0.895366 58.48 0.895366 58.5971 0.827504C58.7144 0.759487 60.4123 0.759487 60.4123 0.827504C60.4123 0.856128 60.5431 0.879547 60.7028 0.879547C60.8626 0.879547 60.9932 0.856128 60.9932 0.827504C60.9932 0.798881 61.0913 0.775462 61.2111 0.775462C61.3309 0.775462 61.4289 0.798881 61.4289 0.827504C61.4289 0.858365 61.9614 0.879547 62.7359 0.879547C63.5103 0.879547 64.0429 0.858365 64.0429 0.827504C64.0429 0.75959 65.3055 0.75959 65.4225 0.827504C65.543 0.897397 69.4161 0.897397 69.4161 0.827504C69.4161 0.798881 69.6122 0.775462 69.8518 0.775462C70.0914 0.775462 70.2874 0.798881 70.2874 0.827504C70.2874 0.860499 71.3766 0.879547 73.2645 0.879547C75.1521 0.879547 76.2416 0.860499 76.2416 0.827504C76.2416 0.798881 76.568 0.775462 76.968 0.775462C77.3672 0.775462 77.6936 0.798881 77.6936 0.827504C77.6936 0.85722 78.1282 0.879547 78.7057 0.879547C79.449 0.879547 79.8556 0.85186 80.235 0.775462C80.6011 0.701773 81.0217 0.67138 81.6751 0.67138C82.4751 0.67138 82.6077 0.657589 82.6732 0.567298C82.7241 0.497769 82.8714 0.463213 83.1174 0.463213C83.32 0.463213 83.5255 0.439794 83.5749 0.411171C83.692 0.343415 85.0555 0.343415 85.1727 0.411171C85.222 0.439794 85.418 0.463213 85.608 0.463213C85.7988 0.463213 85.9948 0.486632 86.0441 0.515256C86.1959 0.603154 86.783 0.573022 87.0607 0.463213C87.261 0.383851 87.5078 0.359131 88.0993 0.359131C88.5266 0.359131 88.8758 0.38255 88.8758 0.411171C88.8758 0.439794 89.236 0.463213 89.6765 0.463213C90.117 0.463213 90.6157 0.492462 90.7844 0.528266C91.0304 0.580308 91.1056 0.580308 91.1579 0.528266C91.2006 0.486216 91.5277 0.463213 92.0831 0.463213C92.559 0.463213 92.942 0.440003 92.942 0.411171C92.942 0.38255 93.1056 0.359131 93.3052 0.359131C93.5048 0.359131 93.6684 0.38255 93.6684 0.411171C93.6684 0.439794 93.9623 0.463213 94.3218 0.463213C94.6812 0.463213 94.9752 0.486632 94.9752 0.515256C94.9752 0.543879 95.1998 0.567298 95.4746 0.567298C95.7501 0.567298 96.0153 0.590714 96.0646 0.619338C96.114 0.647961 96.3136 0.67138 96.5088 0.67138C96.7033 0.67138 96.8632 0.694799 96.8632 0.723422C96.8632 0.753658 97.3376 0.775462 97.9976 0.775462C98.9309 0.775462 99.1873 0.757039 99.4436 0.67138C99.6153 0.614133 99.8561 0.567298 99.9792 0.567298C100.102 0.567298 100.203 0.543879 100.203 0.515256C100.203 0.486632 100.4 0.463213 100.641 0.463213C101.061 0.463213 101.189 0.478149 101.908 0.611221C102.305 0.684962 103.688 0.691259 103.688 0.619338C103.688 0.590714 103.885 0.567298 104.124 0.567298C104.364 0.567298 104.56 0.543879 104.56 0.515256C104.56 0.486632 104.677 0.463213 104.821 0.463213C104.965 0.463213 105.161 0.435112 105.257 0.400765C105.393 0.35221 105.431 0.35221 105.431 0.400765C105.431 0.435162 105.623 0.463213 105.858 0.463213C106.093 0.463213 106.326 0.486632 106.375 0.515256C106.425 0.543879 106.624 0.567298 106.82 0.567298C107.014 0.567298 107.174 0.590714 107.174 0.619338C107.174 0.649939 107.682 0.67138 108.409 0.67138C109.134 0.67138 109.642 0.649939 109.642 0.619338C109.642 0.590714 109.728 0.567298 109.832 0.567298C110.098 0.567298 110.802 0.444896 110.803 0.398161C110.804 0.376668 110.876 0.359131 110.964 0.359131C111.139 0.359131 112.14 0.199987 112.257 0.15367C112.297 0.13785 112.46 0.0970492 112.62 0.062962C112.974 -0.0126545 113.339 -0.0203046 113.675 0.0407924Z" fill="#FF9999"/>
</svg>
