<svg width="137" height="32" viewBox="0 0 137 32" fill="none" xmlns="http://www.w3.org/2000/svg">
<path fill-rule="evenodd" clip-rule="evenodd" d="M59.5412 21.2341V4.94448C59.5412 2.22422 57.118 0 54.1155 0H5.4256C2.44064 0 0 2.20822 0 4.94448V21.2341C0 23.9543 2.42308 26.1786 5.4256 26.1786H40.6832L50.2351 31.9871L48.3212 26.1786H54.1506C57.118 26.1626 59.5587 23.9543 59.5412 21.2341ZM10.2893 16.3696C10.5703 16.8176 10.939 17.1697 11.4131 17.3937C11.8871 17.6337 12.3963 17.7457 12.9758 17.7457C13.5552 17.7457 14.082 17.6177 14.556 17.3777C15.0301 17.1217 15.4164 16.7696 15.6798 16.3216C15.9607 15.8576 16.1012 15.3455 16.1012 14.7534V7.44073C16.1012 7.32872 16.1363 7.24871 16.2066 7.1847C16.2768 7.1207 16.3646 7.08869 16.4875 7.08869H18.4365C18.5594 7.08869 18.6648 7.1207 18.735 7.1847C18.7701 7.21671 18.8052 7.26471 18.8228 7.29671C18.8403 7.34472 18.8579 7.39272 18.8403 7.44073V14.7374C18.8403 15.9056 18.577 16.8817 18.0502 17.6817C17.5234 18.4658 16.8211 19.0579 15.9432 19.4259C15.0652 19.8099 14.0644 19.986 12.9758 19.986C11.8871 19.986 10.9039 19.7939 10.0084 19.4099C9.1129 19.0259 8.41055 18.4338 7.8838 17.6497C7.35704 16.8657 7.09366 15.8896 7.09366 14.7214V7.44073C7.09366 7.34472 7.12878 7.26471 7.19901 7.2007C7.23413 7.1687 7.26925 7.1367 7.30436 7.1207C7.33948 7.10469 7.39216 7.08869 7.44483 7.08869H9.49918C9.62209 7.08869 9.72745 7.1207 9.78012 7.1847C9.8328 7.24871 9.86791 7.32872 9.86791 7.44073V14.7534C9.86791 15.3775 10.0084 15.9216 10.2893 16.3696ZM20.684 17.6337C20.684 17.6817 20.7015 17.7457 20.7191 17.7937C20.7542 17.8577 20.7893 17.9218 20.8245 17.9858C21.2634 18.6098 21.8604 19.1059 22.5979 19.4579C23.3353 19.8099 24.1781 19.986 25.1087 19.986C25.8462 19.986 26.5661 19.8579 27.2509 19.6179C27.9357 19.3619 28.48 18.9939 28.919 18.4818C29.3404 17.9858 29.5511 17.3777 29.5511 16.6576C29.5511 15.9056 29.2877 15.2175 28.7609 14.6254C28.2342 14.0174 27.444 13.5853 26.373 13.2813C26.2325 13.2333 26.1096 13.2013 25.9867 13.1693C25.8638 13.1373 25.7584 13.1053 25.6706 13.0893C25.1439 12.9613 24.7576 12.8493 24.5118 12.7532C24.2659 12.6572 24.0552 12.5452 23.9148 12.4172C23.7567 12.2732 23.6865 12.0972 23.6865 11.8572C23.6865 11.5531 23.827 11.3131 24.1079 11.1211C24.3888 10.9291 24.7751 10.8331 25.2668 10.8331C25.7409 10.8331 26.1271 10.9131 26.4432 11.0571C26.7592 11.2011 27.0577 11.4411 27.3562 11.7451C27.4616 11.8572 27.5494 11.9212 27.6547 11.9212C27.725 11.9212 27.8128 11.8892 27.9006 11.8092L29.0067 10.9771C29.1297 10.8811 29.1999 10.8011 29.1999 10.721C29.1999 10.657 29.1472 10.561 29.0594 10.433C28.638 9.95297 28.1113 9.53693 27.4792 9.2169C26.847 8.88087 26.092 8.72085 25.1965 8.72085C24.3713 8.72085 23.6514 8.86487 23.0193 9.1689C22.3872 9.47293 21.9131 9.85697 21.5619 10.337C21.2283 10.8171 21.0527 11.2971 21.0527 11.7932C21.0527 12.4012 21.1756 12.9293 21.439 13.3613C21.7024 13.7933 22.0887 14.1614 22.6154 14.4654C23.1422 14.7694 23.827 15.0415 24.6873 15.2815C25.0561 15.3775 25.2843 15.4415 25.337 15.4575C25.7584 15.5695 26.0745 15.6655 26.2676 15.7455C26.4783 15.8255 26.6363 15.9216 26.7417 16.0656C26.8646 16.2096 26.9173 16.4016 26.9173 16.6576C26.9173 16.8977 26.8119 17.1217 26.6188 17.3137C26.4081 17.5057 26.1623 17.6497 25.8462 17.7617C25.5477 17.8577 25.2141 17.9218 24.898 17.9218C24.3713 17.9218 23.9323 17.8097 23.5812 17.5857C23.23 17.3617 22.8964 17.0577 22.5979 16.6736C22.4925 16.5456 22.3872 16.4816 22.2643 16.4816C22.194 16.4816 22.1238 16.5136 22.0536 16.5456L20.842 17.3297C20.7367 17.4257 20.684 17.5217 20.684 17.6337ZM40.5076 16.7216C40.613 16.7216 40.6832 16.7536 40.7359 16.8336L41.7016 17.9058C41.7718 18.0018 41.8245 18.0818 41.8245 18.1618C41.8245 18.2578 41.7718 18.3378 41.684 18.4178C40.9817 18.9779 40.2969 19.3779 39.5946 19.6339C38.9098 19.8739 38.1548 20.002 37.3646 20.002C36.2936 20.002 35.2752 19.7459 34.327 19.2499C33.3788 18.7378 32.6238 18.0658 32.0619 17.2017C31.5001 16.3376 31.2191 15.4095 31.2191 14.4014C31.2191 13.3773 31.4825 12.4332 32.0093 11.5851C32.536 10.721 33.2559 10.049 34.1865 9.53693C35.1171 9.02488 36.1531 8.78486 37.2944 8.78486C38.225 8.78486 39.138 8.99288 40.0511 9.40892C40.9641 9.82496 41.7191 10.449 42.3161 11.2971C42.9131 12.1452 43.2116 13.1853 43.2116 14.4174C43.2116 14.6894 43.1765 14.8975 43.1063 15.0255C43.036 15.1535 42.9307 15.2335 42.8253 15.2495C42.7024 15.2815 42.5093 15.2975 42.2635 15.2815H33.8354C33.9583 15.7935 34.2041 16.2416 34.5377 16.6256C34.8713 17.0097 35.2927 17.3137 35.7844 17.5217C36.276 17.7297 36.8027 17.8417 37.3646 17.8417C37.8036 17.8417 38.1723 17.7937 38.5059 17.7137C38.822 17.6337 39.0854 17.5377 39.2961 17.4257C39.5419 17.2977 39.7701 17.1537 39.9809 16.9937L40.2618 16.8016C40.3496 16.7376 40.4374 16.7216 40.5076 16.7216ZM35.8546 11.1691C35.3981 11.3771 35.0118 11.6651 34.6782 12.0172C34.3446 12.3692 34.0987 12.7693 33.9231 13.2173H40.613C40.332 12.5132 39.8931 11.9372 39.3136 11.5051C38.7342 11.0731 38.0494 10.8651 37.2944 10.8651C36.8027 10.8491 36.3111 10.9611 35.8546 11.1691ZM47.1096 8.86487H45.7576C45.5118 8.86487 45.3889 8.99288 45.3889 9.2329V19.4419C45.3889 19.6819 45.5118 19.7939 45.7576 19.7939H47.6891C47.9524 19.7939 48.0754 19.6819 48.0754 19.4419V13.4573C48.0754 12.9133 48.1807 12.4652 48.409 12.0972C48.6372 11.7291 48.9182 11.4571 49.2869 11.2811C49.6381 11.1051 50.0244 11.0091 50.4282 11.0091C50.832 11.0091 51.2008 11.0731 51.5519 11.2011C51.9031 11.3451 52.2367 11.5051 52.5528 11.6971C52.6581 11.7612 52.7635 11.8092 52.8513 11.8092C52.9566 11.8092 53.0269 11.7612 53.1147 11.6651L53.9926 10.529C54.0628 10.449 54.0979 10.369 54.0979 10.289C54.0979 10.177 54.0277 10.065 53.8872 9.93697C53.5361 9.66494 53.0795 9.39292 52.5177 9.13689C51.9734 8.88087 51.3764 8.75286 50.7267 8.75286C50.1297 8.75286 49.5854 8.88087 49.0937 9.13689C48.6021 9.39292 48.1983 9.74495 47.8822 10.209L47.6891 9.26491C47.6539 9.08889 47.6013 8.97688 47.4959 8.92887C47.4081 8.88087 47.2852 8.86487 47.1096 8.86487Z" fill="#121313"/>
<path d="M62.9996 7.08868H73.0431C73.2889 7.08868 73.4118 7.2007 73.4118 7.42472V9.04088C73.4118 9.2649 73.2889 9.39291 73.0431 9.39291H69.3382V19.4579C69.3382 19.6819 69.2153 19.7939 68.9695 19.7939H66.9502C66.7044 19.7939 66.5815 19.6819 66.5815 19.4579V9.37691H62.982C62.7362 9.37691 62.6133 9.2649 62.6133 9.02487V7.42472C62.6308 7.2007 62.7538 7.08868 62.9996 7.08868Z" fill="#121313"/>
<path d="M82.3861 16.7216C82.4915 16.7216 82.5617 16.7536 82.6144 16.8336L83.5801 17.9057C83.6504 18.0018 83.703 18.0818 83.703 18.1618C83.703 18.2578 83.6504 18.3378 83.5626 18.4178C82.8602 18.9778 82.1754 19.3779 81.4731 19.6339C80.7708 19.8899 80.0333 20.0019 79.2432 20.0019C78.1721 20.0019 77.1537 19.7459 76.2055 19.2499C75.2574 18.7378 74.5023 18.0658 73.9405 17.2017C73.3786 16.3376 73.0977 15.4095 73.0977 14.4014C73.0977 13.3773 73.361 12.4332 73.8878 11.5851C74.4146 10.721 75.1345 10.049 76.0651 9.53692C76.9957 9.02487 78.0316 8.78485 79.1729 8.78485C80.1035 8.78485 81.0341 8.99287 81.9296 9.40891C82.8427 9.82495 83.5977 10.449 84.1947 11.2971C84.7917 12.1452 85.0902 13.1853 85.0902 14.4174C85.0902 14.6894 85.055 14.8974 84.9848 15.0255C84.9146 15.1535 84.8092 15.2335 84.7039 15.2495C84.581 15.2815 84.3878 15.2975 84.142 15.2975H75.7314C75.8543 15.8095 76.1002 16.2576 76.4338 16.6416C76.7674 17.0257 77.1888 17.3297 77.6804 17.5377C78.1721 17.7457 78.6988 17.8577 79.2783 17.8577C79.7172 17.8577 80.086 17.8097 80.4196 17.7297C80.7356 17.6497 80.999 17.5537 81.2097 17.4417C81.4555 17.3137 81.6838 17.1697 81.8945 17.0097L82.1754 16.8176C82.2105 16.7376 82.2983 16.7216 82.3861 16.7216ZM77.7156 11.1691C77.259 11.3771 76.8727 11.6651 76.5391 12.0172C76.2055 12.3692 75.9597 12.7692 75.7841 13.2173H82.4915C82.2105 12.5132 81.7716 11.9372 81.1922 11.5051C80.6127 11.0731 79.9279 10.8651 79.1554 10.8651C78.6637 10.8491 78.1545 10.9611 77.7156 11.1691Z" fill="#121313"/>
<path d="M85.8964 17.7937C85.8789 17.7457 85.8613 17.6817 85.8613 17.6337C85.8613 17.5217 85.914 17.4257 86.0193 17.3297L87.2133 16.4976C87.266 16.4496 87.3362 16.4176 87.424 16.4336C87.5469 16.4336 87.6698 16.4976 87.7576 16.6256C88.0561 17.0096 88.3897 17.3137 88.7409 17.5377C89.0921 17.7617 89.531 17.8737 90.0578 17.8737C90.3914 17.8737 90.7075 17.8257 91.006 17.7137C91.322 17.6017 91.5854 17.4577 91.7785 17.2657C91.9717 17.0737 92.077 16.8496 92.077 16.6096C92.077 16.3536 92.0244 16.1616 91.9015 16.0175C91.7785 15.8735 91.6205 15.7775 91.4274 15.6975C91.2342 15.6175 90.9182 15.5215 90.4968 15.4095C90.4265 15.3935 90.2158 15.3455 89.8471 15.2335C88.9867 14.9935 88.3019 14.7214 87.7752 14.4174C87.2484 14.1134 86.8621 13.7453 86.5988 13.3133C86.3354 12.8812 86.2125 12.3532 86.2125 11.7451C86.2125 11.2491 86.3881 10.769 86.7217 10.289C87.0553 9.80894 87.5469 9.4249 88.179 9.12088C88.8111 8.81685 89.5311 8.67283 90.3563 8.67283C91.2342 8.67283 92.0068 8.83285 92.6389 9.16888C93.271 9.50491 93.7978 9.90495 94.2192 10.385C94.3245 10.497 94.3596 10.593 94.3596 10.673C94.3596 10.753 94.2894 10.849 94.1665 10.9291L93.0603 11.7611C92.955 11.8251 92.8847 11.8731 92.8145 11.8731C92.7267 11.8731 92.6214 11.8091 92.516 11.6971C92.2351 11.3931 91.919 11.1691 91.603 11.0091C91.2869 10.865 90.883 10.785 90.4265 10.785C89.9349 10.785 89.5486 10.881 89.2677 11.0731C88.9867 11.2651 88.8463 11.5051 88.8463 11.8091C88.8463 12.0492 88.9165 12.2252 89.0745 12.3692C89.2325 12.5132 89.4257 12.6252 89.6715 12.7052C89.9173 12.8012 90.3212 12.8972 90.8304 13.0413C90.9357 13.0573 91.0411 13.0893 91.1464 13.1213C91.2693 13.1533 91.3923 13.1853 91.5327 13.2333C92.6038 13.5213 93.3939 13.9693 93.9207 14.5774C94.4474 15.1855 94.7108 15.8575 94.7108 16.6096C94.7108 17.3137 94.5001 17.9217 94.0787 18.4338C93.6573 18.9298 93.0954 19.3139 92.4106 19.5699C91.7259 19.8259 91.006 19.9539 90.2685 19.9379C89.3379 19.9379 88.4951 19.7619 87.7576 19.4099C87.0202 19.0578 86.4407 18.5618 85.9842 17.9377C85.9667 17.9217 85.9315 17.8577 85.8964 17.7937Z" fill="#121313"/>
<path d="M101.154 8.94485C101.417 8.94485 101.558 9.07287 101.558 9.31289V10.721C101.558 10.833 101.523 10.9291 101.435 10.9931C101.347 11.0571 101.242 11.0891 101.119 11.0891H99.7668V16.4176C99.7668 16.8016 99.8371 17.1057 99.9951 17.3457C100.153 17.5697 100.416 17.6977 100.785 17.7137L101.084 17.7297C101.294 17.7457 101.435 17.7937 101.488 17.8897C101.54 17.9857 101.575 18.0978 101.558 18.2098V19.4259C101.558 19.7139 101.312 19.8579 100.838 19.8579C100.1 19.8579 99.4508 19.7299 98.8889 19.4739C98.3095 19.2179 97.8705 18.8498 97.5545 18.3698C97.2384 17.8897 97.0804 17.3297 97.0804 16.6896V11.1051H95.9917C95.8864 11.1051 95.781 11.0731 95.7108 11.0091C95.623 10.9451 95.5879 10.849 95.5879 10.737V9.34489C95.5879 9.21688 95.623 9.12087 95.7108 9.04086C95.781 8.97686 95.8864 8.94485 95.9917 8.94485H97.0804V7.15268C97.0804 7.02467 97.0979 6.94466 97.1506 6.88065C97.2033 6.81665 97.3086 6.78464 97.4491 6.73664L99.363 6.22459C99.3981 6.20859 99.4332 6.20859 99.4683 6.20859C99.5034 6.20859 99.5561 6.22459 99.5912 6.24059C99.6264 6.25659 99.6615 6.2886 99.679 6.3206C99.7317 6.3846 99.7493 6.48061 99.7493 6.59263V8.92885L101.154 8.94485Z" fill="#121313"/>
<path d="M104.122 4.96047H105.755C106.106 4.96047 106.282 5.13649 106.282 5.50453V7.00868C106.282 7.18469 106.247 7.31271 106.159 7.37671C106.071 7.44072 105.931 7.48872 105.755 7.48872H104.122C103.736 7.48872 103.543 7.32871 103.543 7.00868V5.50453C103.543 5.13649 103.736 4.96047 104.122 4.96047ZM103.736 8.96087C103.806 8.89686 103.894 8.86486 103.999 8.86486H105.984C106.089 8.86486 106.177 8.89686 106.247 8.96087C106.317 9.02487 106.352 9.10488 106.352 9.21689V19.4419C106.352 19.6659 106.229 19.7939 105.984 19.7939H103.999C103.754 19.7939 103.631 19.6819 103.631 19.4419V9.21689C103.631 9.10488 103.666 9.02487 103.736 8.96087Z" fill="#121313"/>
<path d="M110.988 19.6979C110.882 19.7619 110.742 19.7939 110.619 19.7939H108.898C108.635 19.7939 108.494 19.6659 108.494 19.4259V9.21687C108.494 8.97685 108.635 8.84883 108.898 8.84883H110.162C110.285 8.84883 110.426 8.89684 110.514 8.97685C110.619 9.05685 110.689 9.16887 110.724 9.28088L110.882 10.513C111.339 9.92094 111.883 9.4889 112.533 9.20087C113.182 8.91284 113.885 8.76883 114.605 8.76883C115.325 8.76883 116.027 8.92884 116.712 9.26487C117.397 9.60091 117.958 10.113 118.415 10.801C118.854 11.4891 119.082 12.3532 119.082 13.3773V19.4099C119.082 19.6499 118.959 19.7619 118.713 19.7619H116.835C116.571 19.7619 116.431 19.6499 116.431 19.4099V13.4573C116.431 13.0412 116.325 12.6572 116.097 12.2892C115.869 11.9211 115.553 11.6171 115.167 11.3931C114.763 11.1691 114.324 11.0571 113.832 11.0571C113.411 11.0571 112.989 11.1531 112.585 11.3611C112.164 11.5691 111.83 11.8571 111.567 12.2412C111.304 12.6252 111.163 13.0732 111.163 13.5693V19.3939C111.146 19.5379 111.093 19.6179 110.988 19.6979Z" fill="#121313"/>
<path d="M132.111 20.818C131.584 21.6821 130.882 22.3382 129.969 22.7862C129.056 23.2343 128.002 23.4423 126.826 23.4423C126.036 23.4423 125.263 23.3143 124.508 23.0742C123.736 22.8342 123.086 22.4982 122.542 22.0821C122.436 22.0021 122.384 21.9221 122.384 21.8261C122.384 21.7621 122.419 21.6821 122.507 21.5701L123.297 20.53C123.385 20.418 123.49 20.354 123.63 20.354C123.736 20.354 123.841 20.386 123.964 20.466C124.789 20.994 125.808 21.2501 127.054 21.2501C127.686 21.2501 128.248 21.1221 128.74 20.866C129.232 20.626 129.635 20.258 129.899 19.8099C130.18 19.3619 130.32 18.8498 130.32 18.2738V18.2418C129.793 18.7538 129.232 19.1379 128.652 19.3939C128.073 19.6499 127.388 19.7779 126.615 19.7779C125.579 19.7779 124.596 19.5539 123.701 19.0739C122.788 18.6098 122.068 17.9537 121.523 17.1217C120.979 16.2896 120.698 15.3455 120.716 14.2894C120.716 13.2973 120.979 12.3692 121.523 11.5211C122.068 10.673 122.788 9.98496 123.701 9.47291C124.614 8.96086 125.579 8.70483 126.615 8.70483C128.108 8.70483 129.39 9.23289 130.461 10.273L130.619 9.26489C130.636 9.10487 130.689 8.99286 130.759 8.92886C130.829 8.86485 130.935 8.83285 131.075 8.83285H132.585C132.813 8.83285 132.936 8.96086 132.936 9.20088V17.6017C132.884 18.8978 132.62 19.9539 132.111 20.818ZM129.899 12.6412C129.583 12.1292 129.161 11.7131 128.617 11.4091C128.073 11.1051 127.476 10.9451 126.791 10.9451C126.089 10.9451 125.474 11.1051 124.93 11.4091C124.385 11.7131 123.982 12.1292 123.665 12.6572C123.367 13.1853 123.209 13.7453 123.209 14.3694C123.209 15.0255 123.367 15.6015 123.683 16.1136C123.999 16.6256 124.438 17.0257 124.982 17.3137C125.527 17.6017 126.141 17.7457 126.808 17.7457C127.476 17.7457 128.073 17.6017 128.599 17.2977C129.126 16.9936 129.548 16.5776 129.864 16.0656C130.162 15.5375 130.32 14.9774 130.32 14.3694C130.355 13.7293 130.197 13.1533 129.899 12.6412Z" fill="#121313"/>
<path d="M135.166 8.86481C134.411 8.86481 133.797 9.42486 133.797 10.1129C133.797 10.801 134.411 11.3611 135.166 11.3611C135.921 11.3611 136.536 10.801 136.536 10.1129C136.536 9.44086 135.921 8.86481 135.166 8.86481ZM135.166 11.105C134.587 11.105 134.095 10.657 134.095 10.1129C134.095 9.56888 134.587 9.12083 135.166 9.12083C135.746 9.12083 136.238 9.55288 136.238 10.1129C136.238 10.657 135.746 11.105 135.166 11.105Z" fill="#121313"/>
<path d="M134.64 9.44093C134.64 9.44093 134.658 9.42493 134.676 9.42493H135.308C135.395 9.42493 135.483 9.44093 135.553 9.48893C135.624 9.53694 135.676 9.58494 135.729 9.64895C135.764 9.71295 135.799 9.79296 135.799 9.87297C135.799 9.95298 135.782 10.017 135.729 10.097C135.676 10.161 135.624 10.225 135.536 10.257L135.817 10.7531V10.7851H135.536C135.518 10.7851 135.518 10.7851 135.501 10.7851C135.501 10.7851 135.483 10.7691 135.483 10.7531L135.237 10.305H134.939V10.7371C134.939 10.7691 134.921 10.7691 134.904 10.7691H134.693C134.658 10.7691 134.658 10.7531 134.658 10.7371V9.44093C134.623 9.45693 134.623 9.44093 134.64 9.44093ZM134.921 10.097H135.237C135.29 10.097 135.325 10.081 135.36 10.065C135.395 10.049 135.431 10.017 135.448 9.98498C135.466 9.95298 135.483 9.92098 135.483 9.87297C135.483 9.84097 135.466 9.79296 135.448 9.76096C135.431 9.72896 135.395 9.69695 135.36 9.68095C135.325 9.66495 135.29 9.64895 135.237 9.64895H134.921V10.097Z" fill="#121313"/>
</svg>
